<svg xmlns="http://www.w3.org/2000/svg" xmlns:xlink="http://www.w3.org/1999/xlink" version="1.1" x="0px" y="0px" viewBox="0 0 5 6.25" enable-background="new 0 0 5 5" xml:space="preserve"><g><path fill-rule="evenodd" clip-rule="evenodd" fill="#000000" d="M1.968,0.77c0.049-0.025,0.092-0.051,0.138-0.07   c0.07-0.03,0.144-0.045,0.221-0.023c0.021,0.006,0.046,0.002,0.066,0.009c0.061,0.017,0.109,0,0.162-0.033   c0.075-0.043,0.161-0.06,0.247-0.039c0.065,0.018,0.13,0.01,0.195,0.011c0.02,0,0.038-0.011,0.058-0.016   c0.031-0.011,0.062-0.023,0.093-0.029c0.024-0.004,0.054-0.005,0.073,0.006C3.286,0.616,3.35,0.655,3.373,0.731   c0.012,0.042,0.036,0.065,0.079,0.069C3.49,0.804,3.516,0.823,3.539,0.852c0.04,0.047,0.088,0.08,0.152,0.091   c0.044,0.006,0.087,0.021,0.132,0.029c0.04,0.01,0.074,0.03,0.104,0.06C3.979,1.084,4.035,1.136,4.086,1.19   C4.112,1.218,4.13,1.25,4.149,1.282c0.033,0.048,0.06,0.101,0.095,0.145c0.028,0.037,0.051,0.074,0.07,0.115   C4.33,1.576,4.348,1.611,4.371,1.639c0.04,0.046,0.067,0.1,0.099,0.151c0.015,0.025,0.02,0.052,0.008,0.079   c-0.02,0.043-0.01,0.082,0.015,0.121c0.019,0.026,0.033,0.057,0.051,0.084C4.597,2.151,4.6,2.238,4.584,2.327   C4.58,2.352,4.568,2.375,4.557,2.396C4.533,2.438,4.519,2.48,4.529,2.526C4.545,2.604,4.53,2.681,4.541,2.758   c0.004,0.03-0.01,0.055-0.03,0.074c-0.017,0.016-0.034,0.03-0.053,0.043C4.41,2.909,4.384,2.956,4.396,3.012   c0.021,0.09-0.004,0.162-0.062,0.229c-0.017,0.021-0.03,0.05-0.032,0.074c-0.007,0.043-0.027,0.072-0.061,0.09   c-0.055,0.03-0.081,0.08-0.104,0.135c-0.02,0.049-0.048,0.093-0.076,0.138C4.04,3.712,4.008,3.727,3.967,3.73   C3.915,3.735,3.862,3.743,3.812,3.755c-0.062,0.014-0.1,0.065-0.143,0.107C3.658,3.873,3.65,3.886,3.642,3.897   C3.62,3.924,3.596,3.944,3.561,3.948C3.527,3.954,3.5,3.971,3.476,3.994c-0.039,0.039-0.089,0.064-0.144,0.08   C3.221,4.106,3.118,4.161,3.017,4.215C2.987,4.23,2.959,4.242,2.925,4.245C2.898,4.246,2.87,4.256,2.847,4.267   C2.771,4.298,2.7,4.307,2.623,4.261C2.585,4.238,2.531,4.237,2.484,4.233C2.377,4.229,2.278,4.199,2.183,4.151   C2.18,4.149,2.178,4.148,2.176,4.148c-0.05-0.012-0.101-0.016-0.146-0.034C1.983,4.097,1.942,4.067,1.891,4.062   c-0.035-0.004-0.066-0.02-0.101-0.03C1.757,4.023,1.724,4.01,1.688,4.007C1.624,3.999,1.579,3.971,1.554,3.913   c-0.021-0.05-0.056-0.07-0.105-0.085C1.333,3.796,1.268,3.707,1.219,3.604C1.214,3.593,1.209,3.58,1.21,3.568   c0.004-0.067-0.03-0.12-0.055-0.178c-0.042-0.096-0.097-0.182-0.17-0.257C0.956,3.105,0.943,3.072,0.946,3.032   c0.001-0.038-0.01-0.073-0.022-0.109C0.9,2.858,0.885,2.793,0.887,2.724c0.003-0.05-0.006-0.101-0.008-0.15   C0.878,2.546,0.878,2.518,0.883,2.491C0.9,2.422,0.901,2.353,0.885,2.283C0.87,2.225,0.879,2.168,0.901,2.113   C0.916,2.08,0.927,2.047,0.943,2.017c0.034-0.066,0.05-0.136,0.051-0.211c0.002-0.094,0.035-0.178,0.095-0.249   C1.122,1.515,1.149,1.472,1.17,1.422C1.193,1.363,1.226,1.31,1.267,1.261c0.027-0.032,0.049-0.069,0.067-0.108   c0.03-0.065,0.073-0.117,0.138-0.154c0.043-0.026,0.085-0.051,0.132-0.067c0.046-0.018,0.085-0.054,0.125-0.084   C1.765,0.82,1.796,0.786,1.832,0.761c0.055-0.04,0.062-0.037,0.119,0.002C1.955,0.766,1.96,0.766,1.968,0.77z M2.269,1.78   c0.025-0.006,0.046-0.01,0.067-0.016C2.429,1.739,2.514,1.695,2.61,1.686c0.036-0.004,0.073-0.01,0.11-0.004   c0.096,0.016,0.19,0.025,0.284-0.008C3.021,1.669,3.04,1.669,3.056,1.67c0.03,0.003,0.061,0.008,0.09,0.008   C3.182,1.68,3.211,1.688,3.236,1.711c0.039,0.032,0.082,0.056,0.129,0.075c0.038,0.016,0.065,0.043,0.087,0.08   c0.021,0.039,0.05,0.076,0.079,0.109c0.08,0.093,0.148,0.189,0.177,0.312c0.004,0.02,0.016,0.036,0.021,0.057   C3.736,2.367,3.746,2.391,3.75,2.415c0.022,0.13-0.03,0.242-0.089,0.351c-0.025,0.047-0.064,0.088-0.1,0.131   C3.527,2.938,3.49,2.978,3.454,3.018C3.421,3.057,3.377,3.083,3.33,3.102C3.251,3.133,3.172,3.165,3.093,3.195   C3.067,3.205,3.04,3.21,3.013,3.214C2.948,3.225,2.883,3.23,2.819,3.241C2.77,3.249,2.721,3.26,2.672,3.269   C2.559,3.292,2.458,3.265,2.361,3.206C2.333,3.188,2.298,3.174,2.265,3.171C2.184,3.164,2.114,3.134,2.056,3.08   C2.049,3.075,2.041,3.074,2.033,3.071C1.998,3.09,1.96,3.105,1.944,3.152c0.037,0.045,0.071,0.092,0.116,0.126   C2.081,3.292,2.105,3.302,2.13,3.307c0.062,0.009,0.122,0.028,0.186,0.021c0.019-0.002,0.04,0.008,0.058,0.015   c0.062,0.025,0.121,0.051,0.182,0.076c0.058,0.023,0.122,0.026,0.176,0c0.065-0.031,0.129-0.034,0.197-0.033   c0.038,0,0.076-0.004,0.112-0.013c0.105-0.024,0.201-0.078,0.29-0.139c0.143-0.097,0.259-0.214,0.319-0.38   C3.66,2.824,3.684,2.797,3.708,2.777C3.852,2.669,3.933,2.408,3.859,2.23C3.85,2.205,3.839,2.18,3.827,2.155   c-0.038-0.08-0.078-0.157-0.115-0.238c-0.031-0.07-0.078-0.128-0.144-0.169C3.514,1.713,3.457,1.68,3.398,1.653   c-0.1-0.043-0.201-0.08-0.301-0.122C3.041,1.508,2.987,1.506,2.931,1.53C2.879,1.551,2.824,1.562,2.769,1.549   C2.75,1.545,2.729,1.546,2.708,1.546C2.666,1.549,2.623,1.555,2.581,1.555C2.468,1.554,2.363,1.58,2.271,1.651   c-0.038,0.029-0.045,0.038-0.028,0.08C2.248,1.747,2.259,1.762,2.269,1.78z M2.21,1.653c0.043-0.025,0.077-0.041,0.107-0.062   c0.048-0.035,0.104-0.054,0.16-0.059c0.102-0.01,0.2-0.011,0.301-0.014c0.068-0.002,0.135,0.006,0.199-0.026   c0.023-0.012,0.056-0.014,0.081-0.006c0.048,0.012,0.094,0.032,0.14,0.052c0.055,0.023,0.107,0.06,0.163,0.075   c0.08,0.021,0.146,0.065,0.218,0.104c0.07,0.039,0.13,0.093,0.149,0.179C3.731,1.909,3.739,1.92,3.745,1.932   c0.035,0.071,0.07,0.144,0.105,0.216c0.048,0.097,0.07,0.196,0.062,0.306C3.9,2.582,3.85,2.689,3.751,2.774   C3.705,2.813,3.678,2.861,3.65,2.913C3.62,2.974,3.588,3.035,3.543,3.084c-0.109,0.129-0.248,0.22-0.402,0.287   C3.067,3.402,2.989,3.422,2.907,3.416c-0.053-0.004-0.105,0-0.154,0.024C2.67,3.48,2.587,3.477,2.506,3.438   C2.478,3.425,2.452,3.411,2.423,3.398C2.375,3.377,2.328,3.357,2.271,3.367C2.245,3.371,2.218,3.359,2.19,3.354   c-0.02-0.002-0.038-0.012-0.059-0.013C2.09,3.338,2.053,3.322,2.024,3.292C1.997,3.265,1.971,3.233,1.943,3.205   C1.931,3.193,1.917,3.172,1.889,3.188C1.896,3.199,1.902,3.21,1.909,3.219c0.033,0.04,0.066,0.076,0.096,0.118   c0.05,0.077,0.121,0.112,0.208,0.119c0.074,0.006,0.143,0.029,0.208,0.062c0.116,0.057,0.241,0.061,0.365,0.073   c0.01,0.001,0.02-0.002,0.03-0.006c0.073-0.024,0.146-0.05,0.221-0.074c0.023-0.008,0.048-0.016,0.072-0.02   c0.058-0.012,0.111-0.029,0.158-0.065c0.139-0.104,0.266-0.224,0.386-0.35c0.024-0.025,0.046-0.059,0.063-0.091   c0.056-0.104,0.111-0.208,0.162-0.314c0.052-0.105,0.085-0.215,0.075-0.334C3.95,2.284,3.942,2.232,3.931,2.18   C3.906,2.064,3.885,1.95,3.801,1.857c-0.038-0.042-0.056-0.103-0.085-0.15C3.677,1.642,3.636,1.578,3.55,1.565   c-0.026-0.004-0.051-0.02-0.076-0.03C3.33,1.476,3.188,1.41,3.043,1.354C2.952,1.319,2.854,1.319,2.761,1.34   c-0.056,0.012-0.107,0.029-0.16,0.043c-0.127,0.029-0.253,0.06-0.38,0.09C2.19,1.479,2.162,1.485,2.133,1.514   C2.156,1.557,2.18,1.599,2.21,1.653z M3.554,2.836c0.013-0.004,0.019-0.005,0.022-0.008C3.585,2.819,3.593,2.81,3.601,2.8   c0.057-0.075,0.091-0.161,0.112-0.253c0.02-0.07,0.012-0.139-0.014-0.206C3.693,2.325,3.685,2.308,3.682,2.292   c-0.017-0.09-0.07-0.16-0.121-0.232C3.515,1.994,3.462,1.933,3.417,1.867c-0.024-0.036-0.053-0.06-0.091-0.075   c-0.03-0.012-0.06-0.026-0.085-0.046C3.159,1.681,3.068,1.684,2.976,1.708C2.948,1.715,2.924,1.719,2.895,1.719   C2.823,1.717,2.751,1.724,2.68,1.707c-0.012-0.004-0.025,0-0.037,0.002c-0.077,0.014-0.155,0.02-0.225,0.06   c-0.02,0.01-0.043,0.014-0.065,0.02C2.314,1.797,2.28,1.81,2.267,1.848c-0.06-0.013-0.071-0.012-0.101,0.027   c-0.041,0.052-0.075,0.107-0.114,0.16C1.994,2.113,1.938,2.193,1.873,2.267C1.823,2.322,1.8,2.381,1.819,2.45   c0.015,0.049,0.036,0.095,0.055,0.141C1.89,2.628,1.905,2.665,1.92,2.703c0.024,0.073,0.05,0.146,0.077,0.22   c0.008,0.02,0.016,0.043,0.044,0.051c0.044-0.027,0.079-0.064,0.11-0.111c-0.034-0.03-0.064-0.061-0.099-0.086   c-0.061-0.049-0.074-0.11-0.059-0.182c0.003-0.018,0.008-0.034,0.014-0.052c0.021-0.06,0.029-0.123,0.025-0.186   C2.028,2.272,2.049,2.193,2.077,2.114c0.012-0.038,0.02-0.082,0.044-0.111c0.058-0.066,0.127-0.121,0.224-0.121   c0.017,0,0.034-0.004,0.051-0.011c0.041-0.013,0.078-0.031,0.12-0.043C2.546,1.817,2.579,1.81,2.611,1.81   c0.047,0,0.094,0.008,0.142,0.015c0.087,0.014,0.172,0.027,0.26,0.009c0.013-0.004,0.03,0.005,0.043,0.01   c0.018,0.005,0.033,0.015,0.05,0.02C3.19,1.894,3.271,1.935,3.337,1.999C3.361,2.024,3.388,2.047,3.415,2.07   C3.473,2.12,3.507,2.182,3.52,2.256C3.531,2.327,3.533,2.4,3.55,2.472c0.02,0.087,0.015,0.17-0.02,0.251   C3.514,2.765,3.53,2.8,3.554,2.836z M3.834,1.576c-0.006,0.062-0.008,0.063,0.014,0.1C3.882,1.731,3.92,1.784,3.955,1.839   c0.019,0.03,0.038,0.06,0.05,0.093C4.036,2.013,4.061,2.098,4.094,2.18C4.147,2.314,4.172,2.454,4.166,2.6   c-0.002,0.024,0,0.052-0.011,0.073c-0.038,0.07-0.069,0.145-0.131,0.201c-0.049,0.044-0.096,0.09-0.14,0.138   C3.798,3.099,3.716,3.19,3.628,3.276c-0.052,0.051-0.11,0.095-0.17,0.138c-0.027,0.022-0.06,0.035-0.087,0.059   C3.282,3.549,3.183,3.607,3.077,3.651C3.02,3.677,2.959,3.699,2.898,3.712C2.817,3.729,2.734,3.738,2.651,3.746   c-0.028,0.002-0.06-0.002-0.089-0.011C2.5,3.716,2.44,3.693,2.379,3.671c-0.029-0.01-0.058-0.02-0.084-0.033   c-0.038-0.022-0.078-0.031-0.12-0.041c-0.059-0.013-0.118-0.027-0.174-0.05C1.95,3.529,1.9,3.503,1.861,3.462   C1.806,3.406,1.749,3.354,1.696,3.296C1.643,3.237,1.593,3.175,1.575,3.093c-0.013-0.054-0.026-0.107-0.044-0.16   c-0.02-0.06-0.047-0.117-0.063-0.178c-0.02-0.069-0.035-0.141-0.045-0.213C1.415,2.47,1.418,2.396,1.414,2.323   C1.411,2.282,1.418,2.238,1.396,2.201C1.321,2.193,1.317,2.197,1.311,2.26c0,0.011,0,0.02,0,0.03   C1.302,2.381,1.333,2.469,1.334,2.559c0,0.08,0.02,0.154,0.053,0.227c0.02,0.044,0.035,0.089,0.051,0.133   c0.016,0.049,0.04,0.096,0.043,0.145c0.001,0.06,0.02,0.106,0.055,0.151c0.014,0.019,0.022,0.039,0.037,0.057   C1.64,3.352,1.715,3.426,1.808,3.478c0.062,0.034,0.127,0.062,0.186,0.099c0.084,0.051,0.162,0.111,0.229,0.185   C2.239,3.777,2.257,3.785,2.28,3.788C2.365,3.796,2.45,3.81,2.535,3.816c0.101,0.007,0.2,0.012,0.299-0.023   c0.029-0.011,0.063-0.017,0.095-0.015C2.989,3.782,3.037,3.765,3.083,3.73C3.151,3.677,3.221,3.627,3.3,3.596   C3.325,3.585,3.352,3.57,3.369,3.551c0.019-0.018,0.027-0.044,0.04-0.067C3.454,3.5,3.456,3.501,3.48,3.476   c0.061-0.064,0.123-0.124,0.193-0.18c0.057-0.042,0.112-0.081,0.18-0.108C3.909,3.165,3.956,3.118,4.005,3.08   c0.013-0.01,0.019-0.029,0.026-0.045C4.049,2.993,4.067,2.952,4.086,2.91c0.028-0.063,0.062-0.125,0.088-0.191   c0.024-0.069,0.044-0.143,0.061-0.216c0.018-0.076,0.007-0.149-0.029-0.22C4.182,2.236,4.159,2.188,4.142,2.138   C4.114,2.057,4.079,1.979,4.036,1.905C4.014,1.866,3.985,1.831,3.963,1.793c-0.034-0.061-0.066-0.12-0.1-0.179   C3.857,1.603,3.847,1.592,3.834,1.576z M1.719,3.031C1.692,3.057,1.673,3.075,1.654,3.094c-0.026,0.024-0.03,0.052-0.011,0.082   c0.021,0.029,0.038,0.061,0.062,0.085C1.75,3.31,1.798,3.352,1.844,3.399c0.095,0.1,0.213,0.144,0.346,0.167   c0.029,0.006,0.059,0.015,0.086,0.024c0.031,0.012,0.061,0.027,0.09,0.037C2.422,3.65,2.478,3.671,2.534,3.692   c0.051,0.017,0.101,0.031,0.155,0.016C2.708,3.701,2.729,3.704,2.75,3.7c0.088-0.016,0.181-0.017,0.264-0.057   c0.079-0.037,0.157-0.078,0.234-0.121c0.088-0.049,0.155-0.126,0.248-0.167c0.006-0.002,0.008-0.007,0.012-0.01   C3.64,3.232,3.772,3.121,3.874,2.979c0.013-0.019,0.03-0.034,0.046-0.05c0.035-0.032,0.073-0.062,0.105-0.098   c0.065-0.07,0.116-0.15,0.115-0.254C4.138,2.462,4.13,2.348,4.087,2.237C4.063,2.176,4.04,2.116,4.018,2.055   C3.982,1.956,3.952,1.858,3.877,1.784C3.862,1.77,3.854,1.748,3.844,1.732C3.827,1.705,3.812,1.677,3.785,1.657   c-0.022,0.008-0.03,0.023-0.027,0.042c0.004,0.02,0.009,0.04,0.019,0.058c0.027,0.048,0.052,0.098,0.086,0.141   c0.044,0.055,0.065,0.119,0.08,0.186c0.016,0.074,0.027,0.153,0.039,0.23C3.99,2.369,3.989,2.427,3.978,2.485   C3.955,2.595,3.913,2.696,3.861,2.794C3.802,2.906,3.749,3.025,3.66,3.12C3.63,3.151,3.6,3.182,3.568,3.21   c-0.083,0.074-0.165,0.147-0.25,0.22C3.257,3.481,3.187,3.519,3.103,3.527C3.089,3.529,3.074,3.535,3.06,3.539   c-0.076,0.027-0.151,0.054-0.228,0.08c-0.009,0.004-0.02,0.005-0.03,0.007c-0.105,0.005-0.21-0.007-0.311-0.041   c-0.064-0.02-0.126-0.05-0.188-0.073c-0.028-0.011-0.059-0.019-0.088-0.02C2.13,3.489,2.057,3.461,2.005,3.392   C1.925,3.287,1.834,3.189,1.759,3.08C1.749,3.066,1.737,3.053,1.719,3.031z M1.276,2.193c-0.017,0-0.031,0-0.046,0.001   c-0.004,0-0.01,0.003-0.012,0.008c-0.005,0.011-0.008,0.023-0.01,0.035c-0.002,0.009-0.002,0.02-0.002,0.03   c0.004,0.085-0.006,0.17-0.021,0.254c-0.007,0.035-0.003,0.077,0.008,0.11c0.02,0.064,0.051,0.126,0.071,0.189   C1.322,3.002,1.4,3.174,1.473,3.348c0.069,0.167,0.186,0.275,0.357,0.33c0.049,0.016,0.101,0.031,0.147,0.054   C2.09,3.786,2.201,3.846,2.318,3.889c0.068,0.024,0.136,0.038,0.208,0.021c0.064-0.017,0.128-0.017,0.194-0.013   c0.037,0.002,0.075,0.005,0.113,0.006c0.064,0,0.13-0.005,0.191-0.032C3.128,3.823,3.23,3.778,3.334,3.732   c0.012-0.005,0.023-0.01,0.034-0.017c0.061-0.039,0.066-0.062,0.045-0.139C3.407,3.576,3.4,3.574,3.398,3.576   C3.307,3.628,3.215,3.681,3.124,3.734C3.097,3.751,3.071,3.772,3.041,3.788C3.004,3.808,2.964,3.82,2.92,3.813   C2.898,3.81,2.874,3.815,2.854,3.821C2.742,3.863,2.627,3.859,2.512,3.846C2.449,3.837,2.387,3.821,2.325,3.824   C2.229,3.828,2.229,3.813,2.17,3.754C2.098,3.68,2.013,3.618,1.92,3.574C1.822,3.527,1.73,3.474,1.647,3.402   C1.604,3.363,1.568,3.319,1.535,3.271C1.519,3.246,1.503,3.221,1.483,3.198c-0.021-0.024-0.031-0.051-0.03-0.082   c0.001-0.048-0.009-0.091-0.027-0.133C1.407,2.942,1.393,2.9,1.376,2.858C1.333,2.75,1.304,2.64,1.296,2.522   C1.288,2.418,1.265,2.314,1.282,2.209C1.282,2.206,1.28,2.203,1.276,2.193z M2.251,2.769C2.226,2.75,2.211,2.736,2.194,2.728   C2.136,2.692,2.122,2.64,2.132,2.577c0.002-0.023,0.01-0.048,0.016-0.073C2.156,2.464,2.17,2.42,2.172,2.379   c0.004-0.092,0.029-0.177,0.065-0.262c0.025-0.059,0.076-0.092,0.128-0.122c0.012-0.006,0.03-0.009,0.044-0.005   c0.048,0.012,0.09,0,0.129-0.024C2.595,1.928,2.654,1.927,2.72,1.938c0.103,0.018,0.196,0.06,0.294,0.091   c0.043,0.014,0.084,0.027,0.131,0.033c0.123,0.014,0.207,0.081,0.243,0.204c0.015,0.048,0.03,0.095,0.047,0.142   C3.449,2.45,3.457,2.492,3.44,2.534C3.411,2.604,3.441,2.653,3.492,2.7c0.045-0.038,0.042-0.088,0.041-0.134   C3.529,2.491,3.519,2.416,3.51,2.342C3.507,2.319,3.502,2.298,3.498,2.275c-0.01-0.057-0.033-0.108-0.071-0.147   c-0.103-0.111-0.218-0.21-0.371-0.246C3.031,1.875,3.009,1.87,2.982,1.873c-0.05,0.006-0.1,0.008-0.15,0.004   C2.771,1.873,2.708,1.865,2.646,1.854c-0.06-0.011-0.113,0-0.17,0.021C2.422,1.896,2.368,1.929,2.304,1.923   C2.291,1.921,2.275,1.929,2.263,1.936C2.183,1.975,2.117,2.024,2.099,2.12C2.093,2.156,2.077,2.191,2.067,2.229   c-0.005,0.02-0.011,0.039-0.011,0.059c0.003,0.111,0,0.221-0.039,0.327C2.008,2.64,2.009,2.67,2.027,2.693   C2.071,2.75,2.12,2.804,2.189,2.839C2.21,2.815,2.227,2.796,2.251,2.769z M3.993,1.373C3.911,1.431,3.909,1.445,3.971,1.514   C3.982,1.526,3.992,1.541,4,1.557c0.014,0.028,0.027,0.059,0.041,0.087c0.045,0.085,0.089,0.17,0.134,0.254   C4.183,1.913,4.19,1.929,4.201,1.943c0.04,0.065,0.083,0.131,0.124,0.197c0.026,0.041,0.036,0.086,0.039,0.136   c0.009,0.132-0.02,0.261-0.054,0.386C4.288,2.75,4.248,2.832,4.236,2.923C4.234,2.939,4.226,2.956,4.218,2.971   C4.142,3.112,4.041,3.233,3.938,3.354C3.924,3.371,3.904,3.383,3.885,3.395C3.852,3.416,3.816,3.438,3.784,3.46   c-0.076,0.05-0.15,0.101-0.226,0.151c-0.014,0.009-0.029,0.02-0.041,0.03c-0.023,0.021-0.025,0.05-0.007,0.066   C3.523,3.72,3.546,3.717,3.565,3.701c0.004-0.002,0.008-0.006,0.011-0.01C3.634,3.624,3.709,3.585,3.79,3.559   C3.9,3.525,3.983,3.454,4.061,3.373c0.042-0.044,0.072-0.102,0.117-0.146c0.025-0.027,0.041-0.055,0.052-0.089   c0.018-0.05,0.035-0.098,0.076-0.136c0.036-0.034,0.052-0.079,0.051-0.129C4.355,2.794,4.38,2.725,4.413,2.655   c0.016-0.032,0.023-0.064,0.016-0.102C4.417,2.492,4.422,2.43,4.431,2.367c0.018-0.114,0.004-0.226-0.055-0.328   C4.364,2.018,4.354,1.994,4.348,1.97c-0.024-0.108-0.089-0.2-0.125-0.304C4.219,1.657,4.213,1.649,4.206,1.64   C4.149,1.566,4.094,1.495,4.037,1.421C4.023,1.404,4.008,1.389,3.993,1.373z M1.996,3.016C1.97,2.94,1.947,2.878,1.927,2.813   C1.895,2.721,1.858,2.63,1.815,2.542c-0.018-0.034-0.027-0.07-0.033-0.108c-0.008-0.064,0.01-0.122,0.057-0.171   C1.89,2.207,1.939,2.149,1.981,2.087c0.067-0.101,0.127-0.21,0.22-0.294c-0.01-0.026-0.019-0.05-0.03-0.077   c-0.13,0.042-0.239,0.104-0.305,0.223C1.83,2.002,1.784,2.057,1.734,2.11C1.684,2.165,1.646,2.229,1.639,2.31   C1.634,2.393,1.62,2.474,1.656,2.554c0.002,0.005,0.002,0.011,0.002,0.016c0.002,0.074,0.033,0.14,0.069,0.204   C1.781,2.87,1.836,2.966,1.893,3.06c0.006,0.013,0.017,0.023,0.03,0.038C1.948,3.067,1.972,3.04,1.996,3.016z M3.284,2.485   c0.03-0.048,0.018-0.095-0.001-0.14C3.24,2.24,3.153,2.189,3.043,2.18C2.997,2.176,2.954,2.169,2.912,2.152   C2.874,2.14,2.835,2.13,2.796,2.118c-0.05-0.016-0.103-0.027-0.149-0.05C2.608,2.052,2.577,2.057,2.55,2.082   C2.512,2.118,2.476,2.156,2.441,2.195C2.411,2.23,2.387,2.268,2.357,2.303c-0.02,0.023-0.033,0.05-0.033,0.081   c0,0.043,0.001,0.086,0.006,0.128C2.338,2.586,2.376,2.64,2.438,2.684c0.096,0.064,0.2,0.117,0.285,0.195   c0.021,0.019,0.05,0.03,0.078,0.022c0.069-0.02,0.145-0.032,0.206-0.068C3.094,2.784,3.171,2.716,3.227,2.63   C3.234,2.615,3.245,2.6,3.251,2.582c0.005-0.02-0.006-0.033-0.032-0.031C3.213,2.561,3.205,2.569,3.198,2.58   c-0.03,0.052-0.073,0.09-0.127,0.115C2.986,2.731,2.897,2.761,2.804,2.767C2.761,2.77,2.719,2.761,2.682,2.735   C2.644,2.711,2.606,2.688,2.569,2.661c-0.03-0.022-0.059-0.047-0.086-0.073c-0.031-0.031-0.057-0.072-0.05-0.114   c0.015-0.094,0.04-0.187,0.094-0.269c0.03-0.048,0.052-0.053,0.101-0.027c0.05,0.024,0.097,0.035,0.152,0.02   c0.042-0.011,0.086-0.014,0.125,0.009C3.008,2.261,3.102,2.329,3.19,2.4c0.017,0.015,0.028,0.036,0.039,0.056   C3.241,2.474,3.256,2.484,3.284,2.485z M3.385,2.565c0.033-0.039,0.034-0.081,0.021-0.124C3.389,2.381,3.372,2.321,3.35,2.263   C3.314,2.168,3.247,2.11,3.145,2.098C3.108,2.093,3.07,2.087,3.033,2.075C2.931,2.039,2.83,1.997,2.72,1.978   C2.653,1.964,2.596,1.964,2.539,2.003c-0.035,0.025-0.074,0.04-0.121,0.028c-0.018-0.006-0.041,0-0.058,0.008   C2.303,2.068,2.259,2.112,2.239,2.176C2.225,2.222,2.21,2.269,2.207,2.314c-0.004,0.077-0.02,0.149-0.036,0.224   C2.146,2.646,2.164,2.682,2.265,2.728C2.268,2.729,2.271,2.73,2.272,2.731C2.363,2.769,2.446,2.817,2.516,2.89   C2.557,2.933,2.61,2.948,2.665,2.959C2.704,2.967,2.743,2.966,2.79,2.944C2.721,2.918,2.673,2.879,2.627,2.836   C2.61,2.821,2.589,2.81,2.57,2.798c-0.063-0.04-0.128-0.079-0.189-0.122c-0.02-0.014-0.039-0.034-0.048-0.057   C2.3,2.547,2.287,2.47,2.294,2.392C2.298,2.344,2.313,2.3,2.35,2.263C2.377,2.234,2.4,2.202,2.423,2.168   c0.035-0.051,0.08-0.09,0.128-0.127c0.036-0.024,0.071-0.04,0.11-0.005c0.011,0.009,0.027,0.012,0.042,0.016   C2.78,2.075,2.857,2.097,2.933,2.121c0.042,0.015,0.083,0.022,0.126,0.024c0.171,0.012,0.295,0.161,0.273,0.331   C3.325,2.521,3.333,2.551,3.385,2.565z M1.168,2.202c-0.058,0-0.066,0.004-0.073,0.036c-0.009,0.05-0.021,0.1-0.02,0.149   C1.079,2.48,1.059,2.572,1.048,2.663c-0.005,0.04-0.003,0.071,0.017,0.107C1.122,2.886,1.17,3.003,1.193,3.132   c0.017,0.086,0.048,0.17,0.103,0.24C1.344,3.433,1.385,3.5,1.458,3.537c0.012,0.006,0.021,0.021,0.03,0.032   C1.515,3.6,1.541,3.631,1.564,3.662c0.032,0.041,0.07,0.07,0.12,0.089c0.038,0.014,0.07,0.035,0.092,0.073   c0.018,0.031,0.048,0.049,0.09,0.054C1.886,3.835,1.92,3.8,1.924,3.747C1.908,3.74,1.898,3.734,1.886,3.731   C1.819,3.717,1.759,3.688,1.699,3.655C1.588,3.597,1.507,3.512,1.46,3.396c-0.029-0.07-0.062-0.139-0.092-0.208   C1.354,3.156,1.337,3.125,1.325,3.093C1.275,2.968,1.24,2.839,1.183,2.719C1.151,2.654,1.14,2.586,1.155,2.515   c0.007-0.03,0.012-0.061,0.013-0.09C1.17,2.353,1.168,2.28,1.168,2.202z M3.488,3.608C3.495,3.607,3.504,3.607,3.51,3.604   C3.57,3.565,3.632,3.527,3.693,3.487C3.734,3.46,3.774,3.43,3.816,3.4c0.051-0.035,0.108-0.062,0.147-0.114   c0.06-0.084,0.122-0.165,0.184-0.249c0.036-0.051,0.06-0.108,0.075-0.171c0.015-0.058,0.034-0.115,0.05-0.171   C4.282,2.663,4.294,2.632,4.3,2.601c0.01-0.044,0.016-0.089,0.02-0.135c0.006-0.066,0.011-0.135,0.01-0.202   C4.328,2.232,4.318,2.198,4.303,2.171c-0.036-0.068-0.08-0.134-0.12-0.2C4.167,1.947,4.151,1.925,4.138,1.901   C4.085,1.8,4.031,1.696,3.975,1.596C3.952,1.555,3.924,1.52,3.885,1.489C3.862,1.52,3.865,1.546,3.879,1.57   c0.054,0.092,0.108,0.182,0.162,0.272c0.011,0.017,0.021,0.034,0.03,0.052c0.018,0.036,0.035,0.071,0.053,0.107   c0.01,0.023,0.021,0.046,0.027,0.07C4.167,2.14,4.195,2.201,4.227,2.261C4.269,2.338,4.284,2.42,4.264,2.508   C4.252,2.562,4.24,2.62,4.222,2.674c-0.02,0.061-0.042,0.12-0.073,0.174C4.11,2.916,4.071,2.982,4.048,3.057   C4.036,3.093,4.016,3.12,3.985,3.14C3.929,3.178,3.881,3.227,3.81,3.238C3.801,3.24,3.792,3.248,3.784,3.253   C3.676,3.33,3.57,3.411,3.483,3.515C3.449,3.555,3.449,3.559,3.488,3.608z M3.182,2.441c-0.084-0.074-0.174-0.139-0.27-0.193   C2.87,2.223,2.831,2.211,2.784,2.227c-0.056,0.019-0.107,0.016-0.161-0.01c-0.046-0.021-0.07-0.014-0.09,0.033   C2.506,2.312,2.485,2.377,2.466,2.441c-0.012,0.035-0.002,0.07,0.021,0.1C2.504,2.562,2.522,2.582,2.543,2.6   C2.588,2.634,2.636,2.661,2.68,2.695c0.065,0.052,0.138,0.051,0.213,0.032C2.929,2.72,2.964,2.704,3.001,2.695   c0.05-0.014,0.092-0.04,0.129-0.075c0.045-0.04,0.073-0.087,0.054-0.151C3.183,2.46,3.183,2.449,3.182,2.441z M3.952,1.315   C3.897,1.24,3.897,1.24,3.826,1.207c-0.05-0.021-0.105-0.033-0.148-0.071c-0.009-0.008-0.023-0.01-0.035-0.014   C3.545,1.09,3.448,1.056,3.387,0.964c-0.022-0.033-0.054-0.05-0.093-0.058c-0.029-0.005-0.06-0.014-0.085-0.029   c-0.063-0.039-0.132-0.06-0.204-0.072C2.971,0.8,2.936,0.788,2.907,0.77C2.87,0.746,2.838,0.743,2.8,0.755   C2.763,0.766,2.728,0.778,2.691,0.789C2.636,0.806,2.631,0.812,2.638,0.885c0.008,0.002,0.017,0.008,0.026,0.009   C2.719,0.9,2.774,0.902,2.828,0.914c0.069,0.015,0.135,0.038,0.203,0.057C3.073,0.981,3.11,0.998,3.146,1.025   c0.054,0.042,0.111,0.077,0.18,0.095c0.079,0.018,0.16,0.039,0.24,0.059C3.662,1.202,3.75,1.241,3.816,1.319   c0.022,0.026,0.051,0.048,0.074,0.071C3.932,1.36,3.932,1.36,3.952,1.315z M2.064,1.371c0.079-0.003,0.143-0.027,0.204-0.064   c0.043-0.024,0.091-0.043,0.138-0.062c0.09-0.037,0.187-0.054,0.285-0.069c0.07-0.011,0.139-0.007,0.207,0.015   C2.958,1.207,3.02,1.223,3.081,1.23c0.118,0.018,0.23,0.046,0.337,0.104c0.007,0.004,0.013,0.007,0.02,0.01   C3.566,1.385,3.691,1.435,3.79,1.539c0.019-0.027,0.006-0.044-0.006-0.06c-0.048-0.064-0.108-0.11-0.182-0.142   C3.554,1.315,3.506,1.296,3.457,1.276c-0.04-0.016-0.08-0.03-0.119-0.047C3.252,1.194,3.162,1.171,3.081,1.124   c-0.04-0.023-0.084-0.034-0.13-0.037S2.859,1.083,2.816,1.072c-0.046-0.01-0.089-0.006-0.135,0C2.627,1.08,2.572,1.084,2.519,1.093   C2.47,1.099,2.423,1.106,2.377,1.118C2.332,1.129,2.284,1.141,2.24,1.159C2.183,1.184,2.125,1.211,2.073,1.244   c-0.05,0.03-0.052,0.054-0.024,0.108C2.052,1.359,2.059,1.363,2.064,1.371z M3.417,3.73C3.311,3.777,3.213,3.82,3.116,3.865   C3.11,3.867,3.106,3.87,3.102,3.873C3.006,3.925,2.907,3.946,2.797,3.935c-0.1-0.01-0.2-0.021-0.299,0.013   C2.476,3.955,2.449,3.952,2.425,3.95C2.346,3.94,2.275,3.906,2.203,3.875c-0.077-0.033-0.154-0.07-0.239-0.108   C1.946,3.812,1.925,3.85,1.937,3.9c0.012,0.004,0.022,0.009,0.034,0.012c0.073,0.016,0.147,0.031,0.221,0.047   c0.041,0.008,0.077,0.02,0.11,0.047c0.03,0.026,0.065,0.031,0.105,0.022c0.025-0.007,0.054-0.001,0.08,0.004   c0.026,0.007,0.054,0.019,0.077,0.032c0.043,0.03,0.087,0.032,0.135,0.012c0.058-0.021,0.116-0.028,0.178-0.02   c0.044,0.008,0.09,0.003,0.121-0.025c0.043-0.037,0.091-0.054,0.144-0.061C3.156,3.97,3.171,3.963,3.184,3.956   c0.06-0.029,0.118-0.059,0.174-0.09C3.41,3.837,3.433,3.794,3.417,3.73z M3.772,1.584c-0.019-0.022-0.03-0.041-0.048-0.055   c-0.049-0.042-0.103-0.08-0.164-0.104c-0.085-0.033-0.169-0.068-0.253-0.1C3.249,1.304,3.19,1.284,3.126,1.278   C3.06,1.269,2.992,1.257,2.929,1.234C2.848,1.206,2.771,1.197,2.686,1.209c-0.148,0.02-0.29,0.062-0.421,0.135   C2.226,1.365,2.187,1.388,2.141,1.396C2.122,1.398,2.105,1.411,2.085,1.421C2.094,1.437,2.098,1.45,2.106,1.456   c0.012,0.005,0.029,0.008,0.042,0.005c0.05-0.009,0.1-0.02,0.146-0.032c0.138-0.034,0.273-0.067,0.409-0.105   c0.144-0.04,0.285-0.032,0.418,0.033C3.28,1.434,3.449,1.485,3.61,1.554c0.033,0.015,0.062,0.03,0.079,0.064   c0.008,0.013,0.02,0.024,0.034,0.041C3.742,1.632,3.755,1.612,3.772,1.584z M3.456,2.81c-0.018,0.016-0.03,0.026-0.041,0.04   c-0.038,0.043-0.071,0.09-0.109,0.133C3.271,3.021,3.234,3.062,3.18,3.074C3.089,3.091,2.997,3.11,2.905,3.12   C2.861,3.125,2.817,3.125,2.773,3.138c-0.034,0.01-0.076,0.006-0.111-0.004C2.561,3.109,2.458,3.082,2.371,3.018   C2.338,2.993,2.302,2.97,2.267,2.944c-0.02-0.013-0.04-0.027-0.061-0.043c-0.05,0.047-0.101,0.082-0.132,0.138   C2.128,3.095,2.184,3.133,2.26,3.133c0.046,0,0.088,0.017,0.125,0.045c0.052,0.032,0.107,0.06,0.168,0.061   C2.626,3.24,2.697,3.23,2.771,3.222C2.848,3.213,2.924,3.199,3,3.187C3.036,3.18,3.073,3.171,3.108,3.157   c0.069-0.023,0.136-0.052,0.203-0.075c0.1-0.037,0.165-0.101,0.198-0.203C3.491,2.855,3.476,2.835,3.456,2.81z M2.236,2.875   c0.021,0.021,0.036,0.041,0.056,0.054c0.053,0.035,0.107,0.065,0.16,0.101C2.52,3.074,2.601,3.086,2.676,3.112   c0.014,0.005,0.029,0.005,0.045,0.002C2.789,3.103,2.857,3.093,2.928,3.09C2.994,3.088,3.06,3.066,3.126,3.056   c0.053-0.009,0.097-0.031,0.131-0.069c0.051-0.055,0.099-0.113,0.146-0.173c0.012-0.013,0.017-0.029,0.024-0.045   c-0.022-0.032-0.039-0.065-0.075-0.08C3.346,2.697,3.341,2.7,3.34,2.705C3.3,2.812,3.229,2.889,3.125,2.935   C3.108,2.942,3.094,2.951,3.079,2.96C3.016,3.005,2.944,3.016,2.871,2.993c-0.047-0.015-0.093-0.018-0.14-0.011   C2.634,2.995,2.542,2.964,2.474,2.89C2.438,2.851,2.395,2.821,2.349,2.796c-0.02-0.011-0.041-0.022-0.065-0.007   C2.271,2.813,2.256,2.84,2.236,2.875z M1.65,1.082C1.611,1.105,1.583,1.136,1.555,1.167C1.539,1.184,1.526,1.205,1.507,1.214   C1.45,1.238,1.417,1.283,1.385,1.333C1.371,1.354,1.356,1.375,1.338,1.391c-0.034,0.028-0.047,0.065-0.05,0.106   C1.274,1.646,1.225,1.785,1.17,1.924C1.154,1.966,1.134,2.006,1.138,2.059C1.155,2.064,1.174,2.071,1.195,2.08   c0.019-0.033,0.037-0.063,0.054-0.094C1.26,1.964,1.269,1.939,1.283,1.92c0.039-0.053,0.055-0.112,0.07-0.174   c0.01-0.045,0.02-0.088,0.033-0.132c0.044-0.15,0.128-0.272,0.268-0.348c0.081-0.045,0.085-0.064,0.03-0.148   C1.676,1.106,1.664,1.098,1.65,1.082z M1.963,1.337c-0.05,0.008-0.1,0.023-0.147,0.021C1.751,1.355,1.711,1.383,1.678,1.433   C1.65,1.474,1.626,1.519,1.591,1.554c-0.06,0.061-0.089,0.134-0.119,0.207c-0.006,0.012-0.01,0.024-0.015,0.035   C1.395,1.891,1.4,2.008,1.361,2.108C1.388,2.13,1.409,2.133,1.425,2.109c0.01-0.016,0.017-0.035,0.024-0.055   C1.477,1.987,1.506,1.921,1.53,1.852c0.042-0.109,0.12-0.187,0.216-0.253C1.819,1.547,1.89,1.491,1.96,1.435   C2.004,1.398,2.002,1.389,1.963,1.337z M1.938,1.29C1.916,1.252,1.891,1.211,1.866,1.17C1.85,1.178,1.835,1.182,1.823,1.189   C1.742,1.245,1.662,1.3,1.583,1.357C1.564,1.371,1.543,1.383,1.531,1.4C1.499,1.45,1.465,1.501,1.442,1.557   C1.415,1.62,1.398,1.689,1.381,1.758c-0.014,0.06-0.032,0.115-0.065,0.169C1.284,1.976,1.255,2.028,1.239,2.094   c0.025,0.008,0.048,0.015,0.071,0.021c0.031-0.042,0.041-0.086,0.05-0.129c0.009-0.039,0.016-0.081,0.03-0.118   C1.418,1.798,1.45,1.73,1.48,1.661c0.02-0.045,0.046-0.084,0.08-0.118c0.026-0.027,0.048-0.059,0.069-0.09   c0.071-0.108,0.081-0.134,0.236-0.136C1.89,1.317,1.917,1.318,1.938,1.29z M1.588,2.137C1.62,2.148,1.647,2.155,1.67,2.132   c0.065-0.069,0.143-0.13,0.181-0.22c0.02-0.047,0.05-0.083,0.089-0.11c0.054-0.037,0.104-0.077,0.17-0.097   c0.035-0.01,0.043-0.028,0.026-0.062C2.117,1.604,2.094,1.568,2.071,1.526c-0.03,0.015-0.059,0.022-0.075,0.04   C1.94,1.623,1.89,1.681,1.84,1.74C1.815,1.772,1.801,1.812,1.776,1.843c-0.038,0.05-0.08,0.097-0.123,0.143   C1.612,2.025,1.587,2.071,1.588,2.137z M3.835,1.479c0.009-0.012,0.022-0.022,0.024-0.034s-0.004-0.03-0.012-0.041   C3.83,1.381,3.808,1.36,3.786,1.338C3.731,1.276,3.661,1.24,3.583,1.217c-0.067-0.02-0.137-0.031-0.204-0.049   C3.292,1.146,3.211,1.117,3.141,1.061C3.117,1.043,3.09,1.027,3.062,1.018C2.996,0.994,2.929,0.972,2.861,0.955   c-0.06-0.013-0.118-0.02-0.178-0.026C2.672,0.928,2.66,0.935,2.647,0.937c-0.013,0.035-0.009,0.065,0,0.099   C2.661,1.037,2.672,1.043,2.68,1.04C2.741,1.023,2.8,1.036,2.858,1.045c0.019,0.002,0.035,0.008,0.053,0.006   c0.066-0.008,0.122,0.017,0.182,0.042c0.056,0.025,0.112,0.052,0.171,0.075C3.34,1.199,3.418,1.227,3.495,1.257   c0.03,0.012,0.058,0.03,0.089,0.042C3.634,1.317,3.68,1.341,3.72,1.376C3.757,1.41,3.794,1.442,3.835,1.479z M1.462,2.122   c0.064,0.027,0.077,0.026,0.092-0.027c0.02-0.067,0.062-0.119,0.11-0.168C1.695,1.895,1.729,1.862,1.75,1.823   c0.05-0.096,0.121-0.172,0.192-0.25c0.02-0.022,0.047-0.038,0.07-0.056c0.012-0.01,0.023-0.018,0.039-0.03   C2.041,1.469,2.031,1.453,2.02,1.435C1.998,1.449,1.982,1.46,1.966,1.472C1.885,1.534,1.801,1.595,1.721,1.658   C1.672,1.697,1.622,1.739,1.595,1.797C1.547,1.897,1.506,2.001,1.462,2.102C1.461,2.108,1.462,2.116,1.462,2.122z M1.55,2.211   C1.523,2.205,1.506,2.199,1.484,2.198C1.456,2.195,1.441,2.207,1.44,2.236c-0.002,0.034,0,0.07,0.002,0.104   c0.003,0.051,0.008,0.101,0.01,0.151c0,0.089,0.021,0.173,0.048,0.258c0.03,0.093,0.057,0.187,0.087,0.281   c0.004,0.012,0.016,0.021,0.025,0.036c0.02-0.015,0.038-0.023,0.054-0.036c0.025-0.019,0.03-0.042,0.019-0.072   C1.65,2.877,1.624,2.793,1.588,2.713c-0.054-0.116-0.062-0.236-0.041-0.36C1.555,2.308,1.559,2.264,1.55,2.211z M1.943,1.064   c0.007,0,0.012,0.002,0.017-0.001c0.1-0.042,0.202-0.074,0.312-0.055c0.015,0.001,0.03-0.001,0.045-0.004   c0.09-0.011,0.164-0.061,0.241-0.1C2.573,0.897,2.58,0.883,2.575,0.867C2.568,0.85,2.554,0.848,2.538,0.851   C2.516,0.854,2.491,0.865,2.473,0.859C2.418,0.844,2.368,0.857,2.318,0.875c-0.051,0.02-0.104,0.029-0.155,0.014   C2.11,0.873,2.064,0.878,2.02,0.905C2.004,0.916,1.982,0.92,1.966,0.929C1.944,0.939,1.928,0.952,1.902,0.967   C1.923,1.002,1.913,1.04,1.943,1.064z M2.012,1.244c0.018-0.012,0.032-0.021,0.047-0.029c0.051-0.027,0.1-0.062,0.152-0.079   C2.317,1.099,2.426,1.067,2.539,1.06c0.021-0.001,0.042-0.009,0.067-0.016c-0.01-0.039,0.001-0.076-0.034-0.107   C2.549,0.95,2.525,0.963,2.502,0.975c-0.08,0.042-0.16,0.069-0.251,0.061C2.178,1.028,2.104,1.04,2.035,1.066   C1.947,1.099,1.948,1.129,1.983,1.195C1.992,1.211,2.001,1.226,2.012,1.244z M3.288,2.623C3.265,2.646,3.243,2.665,3.223,2.688   C3.134,2.79,3.04,2.881,2.898,2.904C2.875,2.909,2.85,2.912,2.836,2.94c0.007,0.007,0.012,0.014,0.019,0.016   c0.072,0.042,0.14,0.022,0.206-0.014c0.028-0.016,0.054-0.038,0.084-0.05c0.09-0.041,0.135-0.116,0.171-0.201   C3.326,2.665,3.324,2.642,3.288,2.623z M1.624,2.202C1.595,2.198,1.592,2.217,1.591,2.233c-0.002,0.054-0.014,0.104-0.02,0.155   C1.559,2.478,1.553,2.569,1.596,2.654c0.019,0.038,0.036,0.077,0.048,0.119C1.681,2.908,1.751,3.024,1.84,3.132   c0.008,0.008,0.02,0.01,0.039,0.021C1.878,3.129,1.881,3.113,1.875,3.102C1.866,3.082,1.852,3.063,1.84,3.045   C1.746,2.896,1.647,2.75,1.626,2.57c0-0.002-0.002-0.005-0.002-0.008C1.595,2.488,1.597,2.411,1.61,2.333   C1.616,2.29,1.619,2.246,1.624,2.202z M1.838,1.133c-0.025-0.05-0.06-0.084-0.096-0.115C1.715,1.023,1.7,1.039,1.709,1.061   c0.019,0.04,0.037,0.081,0.076,0.114C1.804,1.16,1.819,1.147,1.838,1.133z"/><path fill-rule="evenodd" clip-rule="evenodd" fill="#000000" d="M2.972,2.53C2.971,2.581,2.956,2.624,2.905,2.647   c-0.02,0.01-0.036,0.014-0.058,0.006C2.817,2.64,2.786,2.63,2.757,2.616c-0.029-0.012-0.05-0.032-0.062-0.062   C2.684,2.531,2.673,2.51,2.66,2.488c-0.018-0.03-0.015-0.058,0.005-0.085c0.016-0.021,0.031-0.044,0.05-0.063   c0.024-0.026,0.058-0.03,0.081-0.01c0.048,0.039,0.095,0.081,0.144,0.12C2.966,2.473,2.972,2.5,2.972,2.53z M2.677,2.441   C2.691,2.47,2.704,2.488,2.709,2.51c0.015,0.048,0.046,0.072,0.093,0.089C2.893,2.632,2.917,2.62,2.936,2.525   c0.003-0.019,0-0.033-0.015-0.046C2.882,2.446,2.846,2.412,2.806,2.383C2.763,2.35,2.749,2.353,2.712,2.392   C2.699,2.406,2.689,2.423,2.677,2.441z"/></g><text x="0" y="20" fill="#000000" font-size="5px" font-weight="bold" font-family="'Helvetica Neue', Helvetica, Arial-Unicode, Arial, Sans-serif">Created by Alice Noir</text><text x="0" y="25" fill="#000000" font-size="5px" font-weight="bold" font-family="'Helvetica Neue', Helvetica, Arial-Unicode, Arial, Sans-serif">from the Noun Project</text></svg>