<?xml version="1.0" encoding="UTF-8" standalone="no"?>
<svg
   xmlns:dc="http://purl.org/dc/elements/1.1/"
   xmlns:cc="http://creativecommons.org/ns#"
   xmlns:rdf="http://www.w3.org/1999/02/22-rdf-syntax-ns#"
   xmlns:svg="http://www.w3.org/2000/svg"
   xmlns="http://www.w3.org/2000/svg"
   xmlns:sodipodi="http://sodipodi.sourceforge.net/DTD/sodipodi-0.dtd"
   xmlns:inkscape="http://www.inkscape.org/namespaces/inkscape"
   version="1.1"
   x="0px"
   y="0px"
   viewBox="0 0 5 6.25"
   enable-background="new 0 0 5 5"
   xml:space="preserve"
   id="svg12"
   sodipodi:docname="logo.svg"
   inkscape:version="0.92.2 (5c3e80d, 2017-08-06)"><metadata
     id="metadata18"><rdf:RDF><cc:Work
         rdf:about=""><dc:format>image/svg+xml</dc:format><dc:type
           rdf:resource="http://purl.org/dc/dcmitype/StillImage" /></cc:Work></rdf:RDF></metadata><defs
     id="defs16" /><sodipodi:namedview
     pagecolor="#ffffff"
     bordercolor="#666666"
     borderopacity="1"
     objecttolerance="10"
     gridtolerance="10"
     guidetolerance="10"
     inkscape:pageopacity="0"
     inkscape:pageshadow="2"
     inkscape:window-width="1366"
     inkscape:window-height="717"
     id="namedview14"
     showgrid="false"
     inkscape:zoom="37.76"
     inkscape:cx="2.5"
     inkscape:cy="1.0063559"
     inkscape:window-x="0"
     inkscape:window-y="27"
     inkscape:window-maximized="1"
     inkscape:current-layer="svg12" /><g
     id="g6"
     transform="matrix(1.3278886,0,0,1.3278886,-1.1318481,-0.10847449)"
     style="fill:#ffffff"><path
       d="M 1.968,0.77 C 2.017,0.745 2.06,0.719 2.106,0.7 2.176,0.67 2.25,0.655 2.327,0.677 2.348,0.683 2.373,0.679 2.393,0.686 2.454,0.703 2.502,0.686 2.555,0.653 2.63,0.61 2.716,0.593 2.802,0.614 c 0.065,0.018 0.13,0.01 0.195,0.011 0.02,0 0.038,-0.011 0.058,-0.016 C 3.086,0.598 3.117,0.586 3.148,0.58 3.172,0.576 3.202,0.575 3.221,0.586 3.286,0.616 3.35,0.655 3.373,0.731 3.385,0.773 3.409,0.796 3.452,0.8 3.49,0.804 3.516,0.823 3.539,0.852 c 0.04,0.047 0.088,0.08 0.152,0.091 0.044,0.006 0.087,0.021 0.132,0.029 0.04,0.01 0.074,0.03 0.104,0.06 C 3.979,1.084 4.035,1.136 4.086,1.19 4.112,1.218 4.13,1.25 4.149,1.282 4.182,1.33 4.209,1.383 4.244,1.427 4.272,1.464 4.295,1.501 4.314,1.542 4.33,1.576 4.348,1.611 4.371,1.639 4.411,1.685 4.438,1.739 4.47,1.79 4.485,1.815 4.49,1.842 4.478,1.869 4.458,1.912 4.468,1.951 4.493,1.99 4.512,2.016 4.526,2.047 4.544,2.074 4.597,2.151 4.6,2.238 4.584,2.327 4.58,2.352 4.568,2.375 4.557,2.396 4.533,2.438 4.519,2.48 4.529,2.526 4.545,2.604 4.53,2.681 4.541,2.758 4.545,2.788 4.531,2.813 4.511,2.832 4.494,2.848 4.477,2.862 4.458,2.875 4.41,2.909 4.384,2.956 4.396,3.012 4.417,3.102 4.392,3.174 4.334,3.241 4.317,3.262 4.304,3.291 4.302,3.315 4.295,3.358 4.275,3.387 4.241,3.405 4.186,3.435 4.16,3.485 4.137,3.54 4.117,3.589 4.089,3.633 4.061,3.678 4.04,3.712 4.008,3.727 3.967,3.73 3.915,3.735 3.862,3.743 3.812,3.755 3.75,3.769 3.712,3.82 3.669,3.862 3.658,3.873 3.65,3.886 3.642,3.897 3.62,3.924 3.596,3.944 3.561,3.948 3.527,3.954 3.5,3.971 3.476,3.994 3.437,4.033 3.387,4.058 3.332,4.074 3.221,4.106 3.118,4.161 3.017,4.215 2.987,4.23 2.959,4.242 2.925,4.245 2.898,4.246 2.87,4.256 2.847,4.267 2.771,4.298 2.7,4.307 2.623,4.261 2.585,4.238 2.531,4.237 2.484,4.233 2.377,4.229 2.278,4.199 2.183,4.151 2.18,4.149 2.178,4.148 2.176,4.148 2.126,4.136 2.075,4.132 2.03,4.114 1.983,4.097 1.942,4.067 1.891,4.062 1.856,4.058 1.825,4.042 1.79,4.032 1.757,4.023 1.724,4.01 1.688,4.007 1.624,3.999 1.579,3.971 1.554,3.913 1.533,3.863 1.498,3.843 1.449,3.828 1.333,3.796 1.268,3.707 1.219,3.604 1.214,3.593 1.209,3.58 1.21,3.568 1.214,3.501 1.18,3.448 1.155,3.39 1.113,3.294 1.058,3.208 0.985,3.133 0.956,3.105 0.943,3.072 0.946,3.032 0.947,2.994 0.936,2.959 0.924,2.923 0.9,2.858 0.885,2.793 0.887,2.724 0.89,2.674 0.881,2.623 0.879,2.574 0.878,2.546 0.878,2.518 0.883,2.491 0.9,2.422 0.901,2.353 0.885,2.283 0.87,2.225 0.879,2.168 0.901,2.113 0.916,2.08 0.927,2.047 0.943,2.017 0.977,1.951 0.993,1.881 0.994,1.806 0.996,1.712 1.029,1.628 1.089,1.557 1.122,1.515 1.149,1.472 1.17,1.422 1.193,1.363 1.226,1.31 1.267,1.261 1.294,1.229 1.316,1.192 1.334,1.153 1.364,1.088 1.407,1.036 1.472,0.999 1.515,0.973 1.557,0.948 1.604,0.932 1.65,0.914 1.689,0.878 1.729,0.848 1.765,0.82 1.796,0.786 1.832,0.761 1.887,0.721 1.894,0.724 1.951,0.763 1.955,0.766 1.96,0.766 1.968,0.77 Z M 2.269,1.78 C 2.294,1.774 2.315,1.77 2.336,1.764 2.429,1.739 2.514,1.695 2.61,1.686 2.646,1.682 2.683,1.676 2.72,1.682 2.816,1.698 2.91,1.707 3.004,1.674 3.021,1.669 3.04,1.669 3.056,1.67 c 0.03,0.003 0.061,0.008 0.09,0.008 0.036,0.002 0.065,0.01 0.09,0.033 0.039,0.032 0.082,0.056 0.129,0.075 0.038,0.016 0.065,0.043 0.087,0.08 0.021,0.039 0.05,0.076 0.079,0.109 0.08,0.093 0.148,0.189 0.177,0.312 0.004,0.02 0.016,0.036 0.021,0.057 C 3.736,2.367 3.746,2.391 3.75,2.415 3.772,2.545 3.72,2.657 3.661,2.766 3.636,2.813 3.597,2.854 3.561,2.897 3.527,2.938 3.49,2.978 3.454,3.018 3.421,3.057 3.377,3.083 3.33,3.102 3.251,3.133 3.172,3.165 3.093,3.195 3.067,3.205 3.04,3.21 3.013,3.214 2.948,3.225 2.883,3.23 2.819,3.241 2.77,3.249 2.721,3.26 2.672,3.269 2.559,3.292 2.458,3.265 2.361,3.206 2.333,3.188 2.298,3.174 2.265,3.171 2.184,3.164 2.114,3.134 2.056,3.08 2.049,3.075 2.041,3.074 2.033,3.071 1.998,3.09 1.96,3.105 1.944,3.152 1.981,3.197 2.015,3.244 2.06,3.278 2.081,3.292 2.105,3.302 2.13,3.307 2.192,3.316 2.252,3.335 2.316,3.328 2.335,3.326 2.356,3.336 2.374,3.343 2.436,3.368 2.495,3.394 2.556,3.419 2.614,3.442 2.678,3.445 2.732,3.419 2.797,3.388 2.861,3.385 2.929,3.386 2.967,3.386 3.005,3.382 3.041,3.373 3.146,3.349 3.242,3.295 3.331,3.234 3.474,3.137 3.59,3.02 3.65,2.854 3.66,2.824 3.684,2.797 3.708,2.777 3.852,2.669 3.933,2.408 3.859,2.23 3.85,2.205 3.839,2.18 3.827,2.155 3.789,2.075 3.749,1.998 3.712,1.917 3.681,1.847 3.634,1.789 3.568,1.748 3.514,1.713 3.457,1.68 3.398,1.653 3.298,1.61 3.197,1.573 3.097,1.531 3.041,1.508 2.987,1.506 2.931,1.53 2.879,1.551 2.824,1.562 2.769,1.549 2.75,1.545 2.729,1.546 2.708,1.546 2.666,1.549 2.623,1.555 2.581,1.555 2.468,1.554 2.363,1.58 2.271,1.651 2.233,1.68 2.226,1.689 2.243,1.731 2.248,1.747 2.259,1.762 2.269,1.78 Z M 2.21,1.653 C 2.253,1.628 2.287,1.612 2.317,1.591 2.365,1.556 2.421,1.537 2.477,1.532 2.579,1.522 2.677,1.521 2.778,1.518 2.846,1.516 2.913,1.524 2.977,1.492 3,1.48 3.033,1.478 3.058,1.486 3.106,1.498 3.152,1.518 3.198,1.538 3.253,1.561 3.305,1.598 3.361,1.613 3.441,1.634 3.507,1.678 3.579,1.717 3.649,1.756 3.709,1.81 3.728,1.896 3.731,1.909 3.739,1.92 3.745,1.932 3.78,2.003 3.815,2.076 3.85,2.148 3.898,2.245 3.92,2.344 3.912,2.454 3.9,2.582 3.85,2.689 3.751,2.774 3.705,2.813 3.678,2.861 3.65,2.913 3.62,2.974 3.588,3.035 3.543,3.084 3.434,3.213 3.295,3.304 3.141,3.371 3.067,3.402 2.989,3.422 2.907,3.416 2.854,3.412 2.802,3.416 2.753,3.44 2.67,3.48 2.587,3.477 2.506,3.438 2.478,3.425 2.452,3.411 2.423,3.398 2.375,3.377 2.328,3.357 2.271,3.367 2.245,3.371 2.218,3.359 2.19,3.354 2.17,3.352 2.152,3.342 2.131,3.341 2.09,3.338 2.053,3.322 2.024,3.292 1.997,3.265 1.971,3.233 1.943,3.205 1.931,3.193 1.917,3.172 1.889,3.188 1.896,3.199 1.902,3.21 1.909,3.219 1.942,3.259 1.975,3.295 2.005,3.337 2.055,3.414 2.126,3.449 2.213,3.456 2.287,3.462 2.356,3.485 2.421,3.518 2.537,3.575 2.662,3.579 2.786,3.591 2.796,3.592 2.806,3.589 2.816,3.585 2.889,3.561 2.962,3.535 3.037,3.511 3.06,3.503 3.085,3.495 3.109,3.491 3.167,3.479 3.22,3.462 3.267,3.426 3.406,3.322 3.533,3.202 3.653,3.076 3.677,3.051 3.699,3.017 3.716,2.985 3.772,2.881 3.827,2.777 3.878,2.671 3.93,2.566 3.963,2.456 3.953,2.337 3.95,2.284 3.942,2.232 3.931,2.18 3.906,2.064 3.885,1.95 3.801,1.857 3.763,1.815 3.745,1.754 3.716,1.707 3.677,1.642 3.636,1.578 3.55,1.565 3.524,1.561 3.499,1.545 3.474,1.535 3.33,1.476 3.188,1.41 3.043,1.354 2.952,1.319 2.854,1.319 2.761,1.34 2.705,1.352 2.654,1.369 2.601,1.383 2.474,1.412 2.348,1.443 2.221,1.473 2.19,1.479 2.162,1.485 2.133,1.514 2.156,1.557 2.18,1.599 2.21,1.653 Z M 3.554,2.836 C 3.567,2.832 3.573,2.831 3.576,2.828 3.585,2.819 3.593,2.81 3.601,2.8 3.658,2.725 3.692,2.639 3.713,2.547 3.733,2.477 3.725,2.408 3.699,2.341 3.693,2.325 3.685,2.308 3.682,2.292 3.665,2.202 3.612,2.132 3.561,2.06 3.515,1.994 3.462,1.933 3.417,1.867 3.393,1.831 3.364,1.807 3.326,1.792 3.296,1.78 3.266,1.766 3.241,1.746 3.159,1.681 3.068,1.684 2.976,1.708 2.948,1.715 2.924,1.719 2.895,1.719 2.823,1.717 2.751,1.724 2.68,1.707 2.668,1.703 2.655,1.707 2.643,1.709 2.566,1.723 2.488,1.729 2.418,1.769 2.398,1.779 2.375,1.783 2.353,1.789 2.314,1.797 2.28,1.81 2.267,1.848 2.207,1.835 2.196,1.836 2.166,1.875 2.125,1.927 2.091,1.982 2.052,2.035 1.994,2.113 1.938,2.193 1.873,2.267 1.823,2.322 1.8,2.381 1.819,2.45 1.834,2.499 1.855,2.545 1.874,2.591 1.89,2.628 1.905,2.665 1.92,2.703 1.944,2.776 1.97,2.849 1.997,2.923 2.005,2.943 2.013,2.966 2.041,2.974 2.085,2.947 2.12,2.91 2.151,2.863 2.117,2.833 2.087,2.802 2.052,2.777 1.991,2.728 1.978,2.667 1.993,2.595 1.996,2.577 2.001,2.561 2.007,2.543 2.028,2.483 2.036,2.42 2.032,2.357 2.028,2.272 2.049,2.193 2.077,2.114 2.089,2.076 2.097,2.032 2.121,2.003 2.179,1.937 2.248,1.882 2.345,1.882 2.362,1.882 2.379,1.878 2.396,1.871 2.437,1.858 2.474,1.84 2.516,1.828 2.546,1.817 2.579,1.81 2.611,1.81 c 0.047,0 0.094,0.008 0.142,0.015 0.087,0.014 0.172,0.027 0.26,0.009 0.013,-0.004 0.03,0.005 0.043,0.01 0.018,0.005 0.033,0.015 0.05,0.02 C 3.19,1.894 3.271,1.935 3.337,1.999 3.361,2.024 3.388,2.047 3.415,2.07 3.473,2.12 3.507,2.182 3.52,2.256 3.531,2.327 3.533,2.4 3.55,2.472 3.57,2.559 3.565,2.642 3.53,2.723 3.514,2.765 3.53,2.8 3.554,2.836 Z m 0.28,-1.26 C 3.828,1.638 3.826,1.639 3.848,1.676 3.882,1.731 3.92,1.784 3.955,1.839 3.974,1.869 3.993,1.899 4.005,1.932 4.036,2.013 4.061,2.098 4.094,2.18 4.147,2.314 4.172,2.454 4.166,2.6 4.164,2.624 4.166,2.652 4.155,2.673 4.117,2.743 4.086,2.818 4.024,2.874 3.975,2.918 3.928,2.964 3.884,3.012 3.798,3.099 3.716,3.19 3.628,3.276 3.576,3.327 3.518,3.371 3.458,3.414 3.431,3.436 3.398,3.449 3.371,3.473 3.282,3.549 3.183,3.607 3.077,3.651 3.02,3.677 2.959,3.699 2.898,3.712 2.817,3.729 2.734,3.738 2.651,3.746 2.623,3.748 2.591,3.744 2.562,3.735 2.5,3.716 2.44,3.693 2.379,3.671 2.35,3.661 2.321,3.651 2.295,3.638 2.257,3.616 2.217,3.607 2.175,3.597 2.116,3.584 2.057,3.57 2.001,3.547 1.95,3.529 1.9,3.503 1.861,3.462 1.806,3.406 1.749,3.354 1.696,3.296 1.643,3.237 1.593,3.175 1.575,3.093 1.562,3.039 1.549,2.986 1.531,2.933 1.511,2.873 1.484,2.816 1.468,2.755 1.448,2.686 1.433,2.614 1.423,2.542 1.415,2.47 1.418,2.396 1.414,2.323 1.411,2.282 1.418,2.238 1.396,2.201 1.321,2.193 1.317,2.197 1.311,2.26 c 0,0.011 0,0.02 0,0.03 -0.009,0.091 0.022,0.179 0.023,0.269 0,0.08 0.02,0.154 0.053,0.227 0.02,0.044 0.035,0.089 0.051,0.133 0.016,0.049 0.04,0.096 0.043,0.145 10e-4,0.06 0.02,0.106 0.055,0.151 C 1.55,3.234 1.558,3.254 1.573,3.272 1.64,3.352 1.715,3.426 1.808,3.478 1.87,3.512 1.935,3.54 1.994,3.577 2.078,3.628 2.156,3.688 2.223,3.762 2.239,3.777 2.257,3.785 2.28,3.788 2.365,3.796 2.45,3.81 2.535,3.816 2.636,3.823 2.735,3.828 2.834,3.793 2.863,3.782 2.897,3.776 2.929,3.778 2.989,3.782 3.037,3.765 3.083,3.73 3.151,3.677 3.221,3.627 3.3,3.596 3.325,3.585 3.352,3.57 3.369,3.551 3.388,3.533 3.396,3.507 3.409,3.484 3.454,3.5 3.456,3.501 3.48,3.476 3.541,3.412 3.603,3.352 3.673,3.296 3.73,3.254 3.785,3.215 3.853,3.188 3.909,3.165 3.956,3.118 4.005,3.08 4.018,3.07 4.024,3.051 4.031,3.035 4.049,2.993 4.067,2.952 4.086,2.91 4.114,2.847 4.148,2.785 4.174,2.719 4.198,2.65 4.218,2.576 4.235,2.503 4.253,2.427 4.242,2.354 4.206,2.283 4.182,2.236 4.159,2.188 4.142,2.138 4.114,2.057 4.079,1.979 4.036,1.905 4.014,1.866 3.985,1.831 3.963,1.793 3.929,1.732 3.897,1.673 3.863,1.614 3.857,1.603 3.847,1.592 3.834,1.576 Z M 1.719,3.031 C 1.692,3.057 1.673,3.075 1.654,3.094 1.628,3.118 1.624,3.146 1.643,3.176 1.664,3.205 1.681,3.237 1.705,3.261 1.75,3.31 1.798,3.352 1.844,3.399 1.939,3.499 2.057,3.543 2.19,3.566 2.219,3.572 2.249,3.581 2.276,3.59 2.307,3.602 2.337,3.617 2.366,3.627 2.422,3.65 2.478,3.671 2.534,3.692 2.585,3.709 2.635,3.723 2.689,3.708 2.708,3.701 2.729,3.704 2.75,3.7 2.838,3.684 2.931,3.683 3.014,3.643 3.093,3.606 3.171,3.565 3.248,3.522 3.336,3.473 3.403,3.396 3.496,3.355 3.502,3.353 3.504,3.348 3.508,3.345 3.64,3.232 3.772,3.121 3.874,2.979 3.887,2.96 3.904,2.945 3.92,2.929 3.955,2.897 3.993,2.867 4.025,2.831 4.09,2.761 4.141,2.681 4.14,2.577 4.138,2.462 4.13,2.348 4.087,2.237 4.063,2.176 4.04,2.116 4.018,2.055 3.982,1.956 3.952,1.858 3.877,1.784 3.862,1.77 3.854,1.748 3.844,1.732 3.827,1.705 3.812,1.677 3.785,1.657 3.763,1.665 3.755,1.68 3.758,1.699 3.762,1.719 3.767,1.739 3.777,1.757 3.804,1.805 3.829,1.855 3.863,1.898 3.907,1.953 3.928,2.017 3.943,2.084 3.959,2.158 3.97,2.237 3.982,2.314 3.99,2.369 3.989,2.427 3.978,2.485 3.955,2.595 3.913,2.696 3.861,2.794 3.802,2.906 3.749,3.025 3.66,3.12 3.63,3.151 3.6,3.182 3.568,3.21 3.485,3.284 3.403,3.357 3.318,3.43 3.257,3.481 3.187,3.519 3.103,3.527 3.089,3.529 3.074,3.535 3.06,3.539 2.984,3.566 2.909,3.593 2.832,3.619 2.823,3.623 2.812,3.624 2.802,3.626 2.697,3.631 2.592,3.619 2.491,3.585 2.427,3.565 2.365,3.535 2.303,3.512 2.275,3.501 2.244,3.493 2.215,3.492 2.13,3.489 2.057,3.461 2.005,3.392 1.925,3.287 1.834,3.189 1.759,3.08 1.749,3.066 1.737,3.053 1.719,3.031 Z M 1.276,2.193 c -0.017,0 -0.031,0 -0.046,10e-4 -0.004,0 -0.01,0.003 -0.012,0.008 C 1.213,2.213 1.21,2.225 1.208,2.237 1.206,2.246 1.206,2.257 1.206,2.267 1.21,2.352 1.2,2.437 1.185,2.521 1.178,2.556 1.182,2.598 1.193,2.631 1.213,2.695 1.244,2.757 1.264,2.82 1.322,3.002 1.4,3.174 1.473,3.348 1.542,3.515 1.659,3.623 1.83,3.678 1.879,3.694 1.931,3.709 1.977,3.732 2.09,3.786 2.201,3.846 2.318,3.889 2.386,3.913 2.454,3.927 2.526,3.91 2.59,3.893 2.654,3.893 2.72,3.897 2.757,3.899 2.795,3.902 2.833,3.903 2.897,3.903 2.963,3.898 3.024,3.871 3.128,3.823 3.23,3.778 3.334,3.732 3.346,3.727 3.357,3.722 3.368,3.715 3.429,3.676 3.434,3.653 3.413,3.576 3.407,3.576 3.4,3.574 3.398,3.576 3.307,3.628 3.215,3.681 3.124,3.734 3.097,3.751 3.071,3.772 3.041,3.788 3.004,3.808 2.964,3.82 2.92,3.813 2.898,3.81 2.874,3.815 2.854,3.821 2.742,3.863 2.627,3.859 2.512,3.846 2.449,3.837 2.387,3.821 2.325,3.824 2.229,3.828 2.229,3.813 2.17,3.754 2.098,3.68 2.013,3.618 1.92,3.574 1.822,3.527 1.73,3.474 1.647,3.402 1.604,3.363 1.568,3.319 1.535,3.271 1.519,3.246 1.503,3.221 1.483,3.198 1.462,3.174 1.452,3.147 1.453,3.116 1.454,3.068 1.444,3.025 1.426,2.983 1.407,2.942 1.393,2.9 1.376,2.858 1.333,2.75 1.304,2.64 1.296,2.522 1.288,2.418 1.265,2.314 1.282,2.209 1.282,2.206 1.28,2.203 1.276,2.193 Z M 2.251,2.769 C 2.226,2.75 2.211,2.736 2.194,2.728 2.136,2.692 2.122,2.64 2.132,2.577 2.134,2.554 2.142,2.529 2.148,2.504 2.156,2.464 2.17,2.42 2.172,2.379 2.176,2.287 2.201,2.202 2.237,2.117 2.262,2.058 2.313,2.025 2.365,1.995 2.377,1.989 2.395,1.986 2.409,1.99 2.457,2.002 2.499,1.99 2.538,1.966 2.595,1.928 2.654,1.927 2.72,1.938 2.823,1.956 2.916,1.998 3.014,2.029 3.057,2.043 3.098,2.056 3.145,2.062 3.268,2.076 3.352,2.143 3.388,2.266 3.403,2.314 3.418,2.361 3.435,2.408 3.449,2.45 3.457,2.492 3.44,2.534 3.411,2.604 3.441,2.653 3.492,2.7 3.537,2.662 3.534,2.612 3.533,2.566 3.529,2.491 3.519,2.416 3.51,2.342 3.507,2.319 3.502,2.298 3.498,2.275 3.488,2.218 3.465,2.167 3.427,2.128 3.324,2.017 3.209,1.918 3.056,1.882 3.031,1.875 3.009,1.87 2.982,1.873 2.932,1.879 2.882,1.881 2.832,1.877 2.771,1.873 2.708,1.865 2.646,1.854 2.586,1.843 2.533,1.854 2.476,1.875 2.422,1.896 2.368,1.929 2.304,1.923 2.291,1.921 2.275,1.929 2.263,1.936 2.183,1.975 2.117,2.024 2.099,2.12 2.093,2.156 2.077,2.191 2.067,2.229 2.062,2.249 2.056,2.268 2.056,2.288 2.059,2.399 2.056,2.509 2.017,2.615 2.008,2.64 2.009,2.67 2.027,2.693 2.071,2.75 2.12,2.804 2.189,2.839 2.21,2.815 2.227,2.796 2.251,2.769 Z M 3.993,1.373 C 3.911,1.431 3.909,1.445 3.971,1.514 3.982,1.526 3.992,1.541 4,1.557 4.014,1.585 4.027,1.616 4.041,1.644 4.086,1.729 4.13,1.814 4.175,1.898 4.183,1.913 4.19,1.929 4.201,1.943 4.241,2.008 4.284,2.074 4.325,2.14 4.351,2.181 4.361,2.226 4.364,2.276 4.373,2.408 4.344,2.537 4.31,2.662 4.288,2.75 4.248,2.832 4.236,2.923 4.234,2.939 4.226,2.956 4.218,2.971 4.142,3.112 4.041,3.233 3.938,3.354 3.924,3.371 3.904,3.383 3.885,3.395 3.852,3.416 3.816,3.438 3.784,3.46 3.708,3.51 3.634,3.561 3.558,3.611 3.544,3.62 3.529,3.631 3.517,3.641 3.494,3.662 3.492,3.691 3.51,3.707 3.523,3.72 3.546,3.717 3.565,3.701 3.569,3.699 3.573,3.695 3.576,3.691 3.634,3.624 3.709,3.585 3.79,3.559 3.9,3.525 3.983,3.454 4.061,3.373 4.103,3.329 4.133,3.271 4.178,3.227 4.203,3.2 4.219,3.172 4.23,3.138 4.248,3.088 4.265,3.04 4.306,3.002 4.342,2.968 4.358,2.923 4.357,2.873 4.355,2.794 4.38,2.725 4.413,2.655 4.429,2.623 4.436,2.591 4.429,2.553 4.417,2.492 4.422,2.43 4.431,2.367 4.449,2.253 4.435,2.141 4.376,2.039 4.364,2.018 4.354,1.994 4.348,1.97 4.324,1.862 4.259,1.77 4.223,1.666 4.219,1.657 4.213,1.649 4.206,1.64 4.149,1.566 4.094,1.495 4.037,1.421 4.023,1.404 4.008,1.389 3.993,1.373 Z M 1.996,3.016 C 1.97,2.94 1.947,2.878 1.927,2.813 1.895,2.721 1.858,2.63 1.815,2.542 1.797,2.508 1.788,2.472 1.782,2.434 1.774,2.37 1.792,2.312 1.839,2.263 1.89,2.207 1.939,2.149 1.981,2.087 2.048,1.986 2.108,1.877 2.201,1.793 2.191,1.767 2.182,1.743 2.171,1.716 2.041,1.758 1.932,1.82 1.866,1.939 1.83,2.002 1.784,2.057 1.734,2.11 1.684,2.165 1.646,2.229 1.639,2.31 1.634,2.393 1.62,2.474 1.656,2.554 1.658,2.559 1.658,2.565 1.658,2.57 1.66,2.644 1.691,2.71 1.727,2.774 1.781,2.87 1.836,2.966 1.893,3.06 1.899,3.073 1.91,3.083 1.923,3.098 1.948,3.067 1.972,3.04 1.996,3.016 Z M 3.284,2.485 C 3.314,2.437 3.302,2.39 3.283,2.345 3.24,2.24 3.153,2.189 3.043,2.18 2.997,2.176 2.954,2.169 2.912,2.152 2.874,2.14 2.835,2.13 2.796,2.118 2.746,2.102 2.693,2.091 2.647,2.068 2.608,2.052 2.577,2.057 2.55,2.082 2.512,2.118 2.476,2.156 2.441,2.195 2.411,2.23 2.387,2.268 2.357,2.303 2.337,2.326 2.324,2.353 2.324,2.384 c 0,0.043 0.001,0.086 0.006,0.128 0.008,0.074 0.046,0.128 0.108,0.172 0.096,0.064 0.2,0.117 0.285,0.195 0.021,0.019 0.05,0.03 0.078,0.022 C 2.87,2.881 2.946,2.869 3.007,2.833 3.094,2.784 3.171,2.716 3.227,2.63 3.234,2.615 3.245,2.6 3.251,2.582 3.256,2.562 3.245,2.549 3.219,2.551 3.213,2.561 3.205,2.569 3.198,2.58 3.168,2.632 3.125,2.67 3.071,2.695 2.986,2.731 2.897,2.761 2.804,2.767 2.761,2.77 2.719,2.761 2.682,2.735 2.644,2.711 2.606,2.688 2.569,2.661 2.539,2.639 2.51,2.614 2.483,2.588 2.452,2.557 2.426,2.516 2.433,2.474 2.448,2.38 2.473,2.287 2.527,2.205 2.557,2.157 2.579,2.152 2.628,2.178 2.678,2.202 2.725,2.213 2.78,2.198 2.822,2.187 2.866,2.184 2.905,2.207 3.008,2.261 3.102,2.329 3.19,2.4 3.207,2.415 3.218,2.436 3.229,2.456 3.241,2.474 3.256,2.484 3.284,2.485 Z m 0.101,0.08 C 3.418,2.526 3.419,2.484 3.406,2.441 3.389,2.381 3.372,2.321 3.35,2.263 3.314,2.168 3.247,2.11 3.145,2.098 3.108,2.093 3.07,2.087 3.033,2.075 2.931,2.039 2.83,1.997 2.72,1.978 2.653,1.964 2.596,1.964 2.539,2.003 2.504,2.028 2.465,2.043 2.418,2.031 2.4,2.025 2.377,2.031 2.36,2.039 2.303,2.068 2.259,2.112 2.239,2.176 2.225,2.222 2.21,2.269 2.207,2.314 2.203,2.391 2.187,2.463 2.171,2.538 2.146,2.646 2.164,2.682 2.265,2.728 2.268,2.729 2.271,2.73 2.272,2.731 2.363,2.769 2.446,2.817 2.516,2.89 2.557,2.933 2.61,2.948 2.665,2.959 2.704,2.967 2.743,2.966 2.79,2.944 2.721,2.918 2.673,2.879 2.627,2.836 2.61,2.821 2.589,2.81 2.57,2.798 2.507,2.758 2.442,2.719 2.381,2.676 2.361,2.662 2.342,2.642 2.333,2.619 2.3,2.547 2.287,2.47 2.294,2.392 2.298,2.344 2.313,2.3 2.35,2.263 2.377,2.234 2.4,2.202 2.423,2.168 2.458,2.117 2.503,2.078 2.551,2.041 2.587,2.017 2.622,2.001 2.661,2.036 2.672,2.045 2.688,2.048 2.703,2.052 2.78,2.075 2.857,2.097 2.933,2.121 2.975,2.136 3.016,2.143 3.059,2.145 3.23,2.157 3.354,2.306 3.332,2.476 3.325,2.521 3.333,2.551 3.385,2.565 Z M 1.168,2.202 C 1.11,2.202 1.102,2.206 1.095,2.238 1.086,2.288 1.074,2.338 1.075,2.387 1.079,2.48 1.059,2.572 1.048,2.663 1.043,2.703 1.045,2.734 1.065,2.77 1.122,2.886 1.17,3.003 1.193,3.132 1.21,3.218 1.241,3.302 1.296,3.372 1.344,3.433 1.385,3.5 1.458,3.537 1.47,3.543 1.479,3.558 1.488,3.569 1.515,3.6 1.541,3.631 1.564,3.662 c 0.032,0.041 0.07,0.07 0.12,0.089 0.038,0.014 0.07,0.035 0.092,0.073 0.018,0.031 0.048,0.049 0.09,0.054 C 1.886,3.835 1.92,3.8 1.924,3.747 1.908,3.74 1.898,3.734 1.886,3.731 1.819,3.717 1.759,3.688 1.699,3.655 1.588,3.597 1.507,3.512 1.46,3.396 1.431,3.326 1.398,3.257 1.368,3.188 1.354,3.156 1.337,3.125 1.325,3.093 1.275,2.968 1.24,2.839 1.183,2.719 1.151,2.654 1.14,2.586 1.155,2.515 1.162,2.485 1.167,2.454 1.168,2.425 c 0.002,-0.072 0,-0.145 0,-0.223 z m 2.32,1.406 C 3.495,3.607 3.504,3.607 3.51,3.604 3.57,3.565 3.632,3.527 3.693,3.487 3.734,3.46 3.774,3.43 3.816,3.4 3.867,3.365 3.924,3.338 3.963,3.286 4.023,3.202 4.085,3.121 4.147,3.037 4.183,2.986 4.207,2.929 4.222,2.866 4.237,2.808 4.256,2.751 4.272,2.695 4.282,2.663 4.294,2.632 4.3,2.601 4.31,2.557 4.316,2.512 4.32,2.466 4.326,2.4 4.331,2.331 4.33,2.264 4.328,2.232 4.318,2.198 4.303,2.171 4.267,2.103 4.223,2.037 4.183,1.971 4.167,1.947 4.151,1.925 4.138,1.901 4.085,1.8 4.031,1.696 3.975,1.596 3.952,1.555 3.924,1.52 3.885,1.489 3.862,1.52 3.865,1.546 3.879,1.57 3.933,1.662 3.987,1.752 4.041,1.842 4.052,1.859 4.062,1.876 4.071,1.894 4.089,1.93 4.106,1.965 4.124,2.001 4.134,2.024 4.145,2.047 4.151,2.071 4.167,2.14 4.195,2.201 4.227,2.261 4.269,2.338 4.284,2.42 4.264,2.508 4.252,2.562 4.24,2.62 4.222,2.674 4.202,2.735 4.18,2.794 4.149,2.848 4.11,2.916 4.071,2.982 4.048,3.057 4.036,3.093 4.016,3.12 3.985,3.14 3.929,3.178 3.881,3.227 3.81,3.238 3.801,3.24 3.792,3.248 3.784,3.253 3.676,3.33 3.57,3.411 3.483,3.515 3.449,3.555 3.449,3.559 3.488,3.608 Z M 3.182,2.441 C 3.098,2.367 3.008,2.302 2.912,2.248 2.87,2.223 2.831,2.211 2.784,2.227 2.728,2.246 2.677,2.243 2.623,2.217 2.577,2.196 2.553,2.203 2.533,2.25 2.506,2.312 2.485,2.377 2.466,2.441 2.454,2.476 2.464,2.511 2.487,2.541 2.504,2.562 2.522,2.582 2.543,2.6 2.588,2.634 2.636,2.661 2.68,2.695 2.745,2.747 2.818,2.746 2.893,2.727 2.929,2.72 2.964,2.704 3.001,2.695 3.051,2.681 3.093,2.655 3.13,2.62 3.175,2.58 3.203,2.533 3.184,2.469 3.183,2.46 3.183,2.449 3.182,2.441 Z M 3.952,1.315 C 3.897,1.24 3.897,1.24 3.826,1.207 3.776,1.186 3.721,1.174 3.678,1.136 3.669,1.128 3.655,1.126 3.643,1.122 3.545,1.09 3.448,1.056 3.387,0.964 3.365,0.931 3.333,0.914 3.294,0.906 3.265,0.901 3.234,0.892 3.209,0.877 3.146,0.838 3.077,0.817 3.005,0.805 2.971,0.8 2.936,0.788 2.907,0.77 2.87,0.746 2.838,0.743 2.8,0.755 2.763,0.766 2.728,0.778 2.691,0.789 2.636,0.806 2.631,0.812 2.638,0.885 2.646,0.887 2.655,0.893 2.664,0.894 2.719,0.9 2.774,0.902 2.828,0.914 2.897,0.929 2.963,0.952 3.031,0.971 3.073,0.981 3.11,0.998 3.146,1.025 3.2,1.067 3.257,1.102 3.326,1.12 3.405,1.138 3.486,1.159 3.566,1.179 3.662,1.202 3.75,1.241 3.816,1.319 3.838,1.345 3.867,1.367 3.89,1.39 3.932,1.36 3.932,1.36 3.952,1.315 Z M 2.064,1.371 C 2.143,1.368 2.207,1.344 2.268,1.307 2.311,1.283 2.359,1.264 2.406,1.245 2.496,1.208 2.593,1.191 2.691,1.176 2.761,1.165 2.83,1.169 2.898,1.191 2.958,1.207 3.02,1.223 3.081,1.23 3.199,1.248 3.311,1.276 3.418,1.334 3.425,1.338 3.431,1.341 3.438,1.344 3.566,1.385 3.691,1.435 3.79,1.539 3.809,1.512 3.796,1.495 3.784,1.479 3.736,1.415 3.676,1.369 3.602,1.337 3.554,1.315 3.506,1.296 3.457,1.276 3.417,1.26 3.377,1.246 3.338,1.229 3.252,1.194 3.162,1.171 3.081,1.124 3.041,1.101 2.997,1.09 2.951,1.087 2.905,1.084 2.859,1.083 2.816,1.072 2.77,1.062 2.727,1.066 2.681,1.072 2.627,1.08 2.572,1.084 2.519,1.093 2.47,1.099 2.423,1.106 2.377,1.118 2.332,1.129 2.284,1.141 2.24,1.159 2.183,1.184 2.125,1.211 2.073,1.244 2.023,1.274 2.021,1.298 2.049,1.352 2.052,1.359 2.059,1.363 2.064,1.371 Z M 3.417,3.73 C 3.311,3.777 3.213,3.82 3.116,3.865 3.11,3.867 3.106,3.87 3.102,3.873 3.006,3.925 2.907,3.946 2.797,3.935 2.697,3.925 2.597,3.914 2.498,3.948 2.476,3.955 2.449,3.952 2.425,3.95 2.346,3.94 2.275,3.906 2.203,3.875 2.126,3.842 2.049,3.805 1.964,3.767 1.946,3.812 1.925,3.85 1.937,3.9 1.949,3.904 1.959,3.909 1.971,3.912 2.044,3.928 2.118,3.943 2.192,3.959 2.233,3.967 2.269,3.979 2.302,4.006 2.332,4.032 2.367,4.037 2.407,4.028 2.432,4.021 2.461,4.027 2.487,4.032 2.513,4.039 2.541,4.051 2.564,4.064 2.607,4.094 2.651,4.096 2.699,4.076 2.757,4.055 2.815,4.048 2.877,4.056 2.921,4.064 2.967,4.059 2.998,4.031 3.041,3.994 3.089,3.977 3.142,3.97 3.156,3.97 3.171,3.963 3.184,3.956 3.244,3.927 3.302,3.897 3.358,3.866 3.41,3.837 3.433,3.794 3.417,3.73 Z M 3.772,1.584 C 3.753,1.562 3.742,1.543 3.724,1.529 3.675,1.487 3.621,1.449 3.56,1.425 3.475,1.392 3.391,1.357 3.307,1.325 3.249,1.304 3.19,1.284 3.126,1.278 3.06,1.269 2.992,1.257 2.929,1.234 2.848,1.206 2.771,1.197 2.686,1.209 2.538,1.229 2.396,1.271 2.265,1.344 2.226,1.365 2.187,1.388 2.141,1.396 2.122,1.398 2.105,1.411 2.085,1.421 2.094,1.437 2.098,1.45 2.106,1.456 2.118,1.461 2.135,1.464 2.148,1.461 2.198,1.452 2.248,1.441 2.294,1.429 2.432,1.395 2.567,1.362 2.703,1.324 2.847,1.284 2.988,1.292 3.121,1.357 3.28,1.434 3.449,1.485 3.61,1.554 3.643,1.569 3.672,1.584 3.689,1.618 3.697,1.631 3.709,1.642 3.723,1.659 3.742,1.632 3.755,1.612 3.772,1.584 Z M 3.456,2.81 C 3.438,2.826 3.426,2.836 3.415,2.85 3.377,2.893 3.344,2.94 3.306,2.983 3.271,3.021 3.234,3.062 3.18,3.074 3.089,3.091 2.997,3.11 2.905,3.12 2.861,3.125 2.817,3.125 2.773,3.138 2.739,3.148 2.697,3.144 2.662,3.134 2.561,3.109 2.458,3.082 2.371,3.018 2.338,2.993 2.302,2.97 2.267,2.944 2.247,2.931 2.227,2.917 2.206,2.901 2.156,2.948 2.105,2.983 2.074,3.039 2.128,3.095 2.184,3.133 2.26,3.133 2.306,3.133 2.348,3.15 2.385,3.178 2.437,3.21 2.492,3.238 2.553,3.239 2.626,3.24 2.697,3.23 2.771,3.222 2.848,3.213 2.924,3.199 3,3.187 3.036,3.18 3.073,3.171 3.108,3.157 3.177,3.134 3.244,3.105 3.311,3.082 3.411,3.045 3.476,2.981 3.509,2.879 3.491,2.855 3.476,2.835 3.456,2.81 Z M 2.236,2.875 C 2.257,2.896 2.272,2.916 2.292,2.929 2.345,2.964 2.399,2.994 2.452,3.03 2.52,3.074 2.601,3.086 2.676,3.112 2.69,3.117 2.705,3.117 2.721,3.114 2.789,3.103 2.857,3.093 2.928,3.09 2.994,3.088 3.06,3.066 3.126,3.056 3.179,3.047 3.223,3.025 3.257,2.987 3.308,2.932 3.356,2.874 3.403,2.814 3.415,2.801 3.42,2.785 3.427,2.769 3.405,2.737 3.388,2.704 3.352,2.689 3.346,2.697 3.341,2.7 3.34,2.705 3.3,2.812 3.229,2.889 3.125,2.935 3.108,2.942 3.094,2.951 3.079,2.96 3.016,3.005 2.944,3.016 2.871,2.993 2.824,2.978 2.778,2.975 2.731,2.982 2.634,2.995 2.542,2.964 2.474,2.89 2.438,2.851 2.395,2.821 2.349,2.796 2.329,2.785 2.308,2.774 2.284,2.789 2.271,2.813 2.256,2.84 2.236,2.875 Z M 1.65,1.082 C 1.611,1.105 1.583,1.136 1.555,1.167 1.539,1.184 1.526,1.205 1.507,1.214 1.45,1.238 1.417,1.283 1.385,1.333 1.371,1.354 1.356,1.375 1.338,1.391 1.304,1.419 1.291,1.456 1.288,1.497 1.274,1.646 1.225,1.785 1.17,1.924 1.154,1.966 1.134,2.006 1.138,2.059 1.155,2.064 1.174,2.071 1.195,2.08 1.214,2.047 1.232,2.017 1.249,1.986 1.26,1.964 1.269,1.939 1.283,1.92 1.322,1.867 1.338,1.808 1.353,1.746 1.363,1.701 1.373,1.658 1.386,1.614 1.43,1.464 1.514,1.342 1.654,1.266 1.735,1.221 1.739,1.202 1.684,1.118 1.676,1.106 1.664,1.098 1.65,1.082 Z M 1.963,1.337 C 1.913,1.345 1.863,1.36 1.816,1.358 1.751,1.355 1.711,1.383 1.678,1.433 1.65,1.474 1.626,1.519 1.591,1.554 1.531,1.615 1.502,1.688 1.472,1.761 1.466,1.773 1.462,1.785 1.457,1.796 1.395,1.891 1.4,2.008 1.361,2.108 1.388,2.13 1.409,2.133 1.425,2.109 1.435,2.093 1.442,2.074 1.449,2.054 1.477,1.987 1.506,1.921 1.53,1.852 1.572,1.743 1.65,1.665 1.746,1.599 1.819,1.547 1.89,1.491 1.96,1.435 2.004,1.398 2.002,1.389 1.963,1.337 Z M 1.938,1.29 C 1.916,1.252 1.891,1.211 1.866,1.17 1.85,1.178 1.835,1.182 1.823,1.189 1.742,1.245 1.662,1.3 1.583,1.357 1.564,1.371 1.543,1.383 1.531,1.4 1.499,1.45 1.465,1.501 1.442,1.557 1.415,1.62 1.398,1.689 1.381,1.758 1.367,1.818 1.349,1.873 1.316,1.927 1.284,1.976 1.255,2.028 1.239,2.094 1.264,2.102 1.287,2.109 1.31,2.115 1.341,2.073 1.351,2.029 1.36,1.986 1.369,1.947 1.376,1.905 1.39,1.868 1.418,1.798 1.45,1.73 1.48,1.661 1.5,1.616 1.526,1.577 1.56,1.543 1.586,1.516 1.608,1.484 1.629,1.453 1.7,1.345 1.71,1.319 1.865,1.317 1.89,1.317 1.917,1.318 1.938,1.29 Z M 1.588,2.137 C 1.62,2.148 1.647,2.155 1.67,2.132 1.735,2.063 1.813,2.002 1.851,1.912 1.871,1.865 1.901,1.829 1.94,1.802 1.994,1.765 2.044,1.725 2.11,1.705 2.145,1.695 2.153,1.677 2.136,1.643 2.117,1.604 2.094,1.568 2.071,1.526 2.041,1.541 2.012,1.548 1.996,1.566 1.94,1.623 1.89,1.681 1.84,1.74 1.815,1.772 1.801,1.812 1.776,1.843 1.738,1.893 1.696,1.94 1.653,1.986 1.612,2.025 1.587,2.071 1.588,2.137 Z M 3.835,1.479 C 3.844,1.467 3.857,1.457 3.859,1.445 3.861,1.433 3.855,1.415 3.847,1.404 3.83,1.381 3.808,1.36 3.786,1.338 3.731,1.276 3.661,1.24 3.583,1.217 3.516,1.197 3.446,1.186 3.379,1.168 3.292,1.146 3.211,1.117 3.141,1.061 3.117,1.043 3.09,1.027 3.062,1.018 2.996,0.994 2.929,0.972 2.861,0.955 2.801,0.942 2.743,0.935 2.683,0.929 2.672,0.928 2.66,0.935 2.647,0.937 2.634,0.972 2.638,1.002 2.647,1.036 2.661,1.037 2.672,1.043 2.68,1.04 2.741,1.023 2.8,1.036 2.858,1.045 2.877,1.047 2.893,1.053 2.911,1.051 2.977,1.043 3.033,1.068 3.093,1.093 3.149,1.118 3.205,1.145 3.264,1.168 3.34,1.199 3.418,1.227 3.495,1.257 3.525,1.269 3.553,1.287 3.584,1.299 3.634,1.317 3.68,1.341 3.72,1.376 3.757,1.41 3.794,1.442 3.835,1.479 Z M 1.462,2.122 C 1.526,2.149 1.539,2.148 1.554,2.095 1.574,2.028 1.616,1.976 1.664,1.927 1.695,1.895 1.729,1.862 1.75,1.823 1.8,1.727 1.871,1.651 1.942,1.573 1.962,1.551 1.989,1.535 2.012,1.517 2.024,1.507 2.035,1.499 2.051,1.487 2.041,1.469 2.031,1.453 2.02,1.435 1.998,1.449 1.982,1.46 1.966,1.472 1.885,1.534 1.801,1.595 1.721,1.658 1.672,1.697 1.622,1.739 1.595,1.797 1.547,1.897 1.506,2.001 1.462,2.102 c -10e-4,0.006 0,0.014 0,0.02 z M 1.55,2.211 C 1.523,2.205 1.506,2.199 1.484,2.198 1.456,2.195 1.441,2.207 1.44,2.236 1.438,2.27 1.44,2.306 1.442,2.34 1.445,2.391 1.45,2.441 1.452,2.491 1.452,2.58 1.473,2.664 1.5,2.749 1.53,2.842 1.557,2.936 1.587,3.03 1.591,3.042 1.603,3.051 1.612,3.066 1.632,3.051 1.65,3.043 1.666,3.03 1.691,3.011 1.696,2.988 1.685,2.958 1.65,2.877 1.624,2.793 1.588,2.713 1.534,2.597 1.526,2.477 1.547,2.353 1.555,2.308 1.559,2.264 1.55,2.211 Z M 1.943,1.064 C 1.95,1.064 1.955,1.066 1.96,1.063 2.06,1.021 2.162,0.989 2.272,1.008 2.287,1.009 2.302,1.007 2.317,1.004 2.407,0.993 2.481,0.943 2.558,0.904 2.573,0.897 2.58,0.883 2.575,0.867 2.568,0.85 2.554,0.848 2.538,0.851 2.516,0.854 2.491,0.865 2.473,0.859 2.418,0.844 2.368,0.857 2.318,0.875 2.267,0.895 2.214,0.904 2.163,0.889 2.11,0.873 2.064,0.878 2.02,0.905 2.004,0.916 1.982,0.92 1.966,0.929 1.944,0.939 1.928,0.952 1.902,0.967 1.923,1.002 1.913,1.04 1.943,1.064 Z m 0.069,0.18 C 2.03,1.232 2.044,1.223 2.059,1.215 2.11,1.188 2.159,1.153 2.211,1.136 2.317,1.099 2.426,1.067 2.539,1.06 2.56,1.059 2.581,1.051 2.606,1.044 2.596,1.005 2.607,0.968 2.572,0.937 2.549,0.95 2.525,0.963 2.502,0.975 2.422,1.017 2.342,1.044 2.251,1.036 2.178,1.028 2.104,1.04 2.035,1.066 1.947,1.099 1.948,1.129 1.983,1.195 1.992,1.211 2.001,1.226 2.012,1.244 Z M 3.288,2.623 C 3.265,2.646 3.243,2.665 3.223,2.688 3.134,2.79 3.04,2.881 2.898,2.904 2.875,2.909 2.85,2.912 2.836,2.94 2.843,2.947 2.848,2.954 2.855,2.956 2.927,2.998 2.995,2.978 3.061,2.942 3.089,2.926 3.115,2.904 3.145,2.892 3.235,2.851 3.28,2.776 3.316,2.691 3.326,2.665 3.324,2.642 3.288,2.623 Z M 1.624,2.202 C 1.595,2.198 1.592,2.217 1.591,2.233 1.589,2.287 1.577,2.337 1.571,2.388 1.559,2.478 1.553,2.569 1.596,2.654 1.615,2.692 1.632,2.731 1.644,2.773 1.681,2.908 1.751,3.024 1.84,3.132 1.848,3.14 1.86,3.142 1.879,3.153 1.878,3.129 1.881,3.113 1.875,3.102 1.866,3.082 1.852,3.063 1.84,3.045 1.746,2.896 1.647,2.75 1.626,2.57 1.626,2.568 1.624,2.565 1.624,2.562 1.595,2.488 1.597,2.411 1.61,2.333 1.616,2.29 1.619,2.246 1.624,2.202 Z M 1.838,1.133 C 1.813,1.083 1.778,1.049 1.742,1.018 1.715,1.023 1.7,1.039 1.709,1.061 1.728,1.101 1.746,1.142 1.785,1.175 1.804,1.16 1.819,1.147 1.838,1.133 Z"
       id="path2"
       inkscape:connector-curvature="0"
       style="clip-rule:evenodd;fill:#ffffff;fill-rule:evenodd" /><path
       d="M 2.972,2.53 C 2.971,2.581 2.956,2.624 2.905,2.647 2.885,2.657 2.869,2.661 2.847,2.653 2.817,2.64 2.786,2.63 2.757,2.616 2.728,2.604 2.707,2.584 2.695,2.554 2.684,2.531 2.673,2.51 2.66,2.488 2.642,2.458 2.645,2.43 2.665,2.403 2.681,2.382 2.696,2.359 2.715,2.34 2.739,2.314 2.773,2.31 2.796,2.33 2.844,2.369 2.891,2.411 2.94,2.45 2.966,2.473 2.972,2.5 2.972,2.53 Z M 2.677,2.441 C 2.691,2.47 2.704,2.488 2.709,2.51 2.724,2.558 2.755,2.582 2.802,2.599 2.893,2.632 2.917,2.62 2.936,2.525 2.939,2.506 2.936,2.492 2.921,2.479 2.882,2.446 2.846,2.412 2.806,2.383 2.763,2.35 2.749,2.353 2.712,2.392 2.699,2.406 2.689,2.423 2.677,2.441 Z"
       id="path4"
       inkscape:connector-curvature="0"
       style="clip-rule:evenodd;fill:#ffffff;fill-rule:evenodd" /></g><text
     x="0"
     y="20"
     fill="#000000"
     font-size="5px"
     font-weight="bold"
     font-family="'Helvetica Neue', Helvetica, Arial-Unicode, Arial, Sans-serif"
     id="text8">Created by Alice Noir</text>
<text
     x="0"
     y="25"
     fill="#000000"
     font-size="5px"
     font-weight="bold"
     font-family="'Helvetica Neue', Helvetica, Arial-Unicode, Arial, Sans-serif"
     id="text10">from the Noun Project</text>
</svg>